<?xml version="1.0" encoding="utf-8"?>
<!-- Generator: Adobe Illustrator 15.0.2, SVG Export Plug-In  -->
<!DOCTYPE svg PUBLIC "-//W3C//DTD SVG 1.1//EN" "http://www.w3.org/Graphics/SVG/1.1/DTD/svg11.dtd" [
	<!ENTITY ns_flows "http://ns.adobe.com/Flows/1.0/">
]>
<svg version="1.1"
	 xmlns="http://www.w3.org/2000/svg" xmlns:xlink="http://www.w3.org/1999/xlink" xmlns:a="http://ns.adobe.com/AdobeSVGViewerExtensions/3.0/"
	 x="0px" y="0px" width="150px" height="100px" viewBox="0 0 150 100" enable-background="new 0 0 150 100" xml:space="preserve">
<defs>
</defs>
<rect display="none" fill="#FF6B01" width="150" height="100"/>
<path fill="#B2B2B2" d="M16.771,59.271c0,0,62.917-11.667,128.333-3.75C145.104,55.521,80.938,44.271,16.771,59.271z"/>
<ellipse display="none" fill="#D3D0CD" cx="38.438" cy="86.354" rx="26.535" ry="2.5"/>
<path d="M48.477,83.554c0,0-0.521,1.239,0.423,2.8c0,0,1.091-0.023,1.537-0.239c0,0,0.679,1.016,4.508-0.423
	c3.83-1.438,4.514-2.646,0.92-2.609c-3.594,0.038-2.611-0.484-4.282-0.772C49.911,82.022,48.477,83.554,48.477,83.554z"/>
<path fill="#666666" d="M48.923,84.349c0,0-0.218,1.408,0.336,1.498c0.555,0.091,0.618-0.407,0.991-0.158
	c0.373,0.249,2.592,0.611,6.112-1.007c0,0-4.533,1.612-6.089,0.666C49.628,84.957,49.312,86.399,48.923,84.349z"/>
<path fill="#2384B0" d="M36.139,56.262c0,0,4.505,6.091,6.489,8.933c1.983,2.843,5.434,13.608,5.187,18.11
	c0,0,4.274-0.336,5.655-1.687c-0.722-2.119-5.369-15.19-8.302-20.043c-1.171-1.938-3.021-4.995-4.19-6.934
	c-0.211-0.35-1.349-2.893-1.771-2.944c-0.001,0-6.964-0.857-5.738,2.775C34.697,58.104,36.139,56.262,36.139,56.262z"/>
<path fill="#144A73" d="M50.007,83.103c-1.337-3.777-5.568-15.444-6.692-17.774c-1.235-2.561-2.033-2.906-7.044-9.134
	c-0.099-0.156-0.132,0.067-0.132,0.067s4.505,6.091,6.489,8.933c1.983,2.843,5.434,13.608,5.187,18.11
	C47.814,83.305,48.833,83.297,50.007,83.103z"/>
<path fill="#FAC26F" d="M56.022,37.119c-0.707-0.859-1.181-0.625-1.181-0.625s-0.559,0.066-0.142-0.696
	c0.05-0.369-0.031-0.752-0.233-0.923c-0.368-0.311-1.319-0.159-1.189,0.223c0.085,0.25-0.048,0.626-0.151,0.858
	c-0.422,0.205-0.501,0.479-0.501,0.479s-1.284,0.106-1.167,1.79c0,0-0.71,1.392,0.847,1.835c1.557,0.444,2.778-0.371,2.668-0.75
	c0,0,0.862-0.081,0.766-0.803C55.739,38.508,56.729,37.979,56.022,37.119z"/>
<path fill="#E59429" d="M51.517,37.807c0,0,0.069-0.749,1.029-1.231C52.546,36.576,51.291,36.698,51.517,37.807z"/>
<path fill="#E59429" d="M51.319,38.499c0,0-0.39,1.841,1.637,1.794c2.026-0.048,2.052-0.838,1.884-0.979
	c0,0-0.018,0.707-1.847,0.779C51.165,40.164,51.319,38.499,51.319,38.499z"/>
<path fill="#E59429" d="M53.647,36.851c0,0,1.428-0.792,2.377,0.283c0.95,1.075-0.447,1.425-0.447,1.425s1.044-0.524,0.358-1.184
	C55.007,36.483,53.647,36.851,53.647,36.851z"/>
<path fill="#E59429" d="M55.521,38.144c0,0,0.802,1.118-0.865,1.305C54.655,39.448,55.941,39.264,55.521,38.144z"/>
<path fill="#E59429" d="M53.858,36.41c-0.033,0.019-0.052,0.034-0.058,0.043c0.38-0.125,0.741-0.772,0.713-1.295
	c-0.028-0.533-1.116-0.683-1.106,0.021c0.009,0.703-0.769,1.337-0.769,1.337c0.015-0.01,0.031-0.018,0.046-0.026
	c0.063-0.045,0.151-0.101,0.278-0.168c0.406-0.216,0.671-0.753,0.632-1.11s0.732-0.4,0.728-0.048
	C54.318,35.516,54.222,36.199,53.858,36.41z"/>
<path fill="#FFFFFF" d="M50.702,36.945l1.047-0.287c0,0-0.579,2.204-0.061,3.207l-1.943-0.106
	C49.745,39.759,50.14,37.342,50.702,36.945z"/>
<path fill="#2384B0" d="M37.4,34.934c0,0,10.186,3.084,13.863,1.615c0,0-0.534,0.942-0.329,3.476c0,0-7.679-0.081-13.126-2.218
	L37.4,34.934z"/>
<path d="M17.563,79.481c0,0-1.206,0.197-1.95,1.677c0,0,0.545,0.828,0.927,1.066c0,0-0.454,1.013,2.501,3.265
	c2.955,2.251,4.215,2.194,2.451-0.553c-1.764-2.746-0.888-2.242-1.473-3.667C19.435,79.846,17.563,79.481,17.563,79.481z"/>
<path fill="#666666" d="M17.168,80.209c0,0-1.188,0.512-0.99,0.981c0.198,0.471,0.611,0.278,0.6,0.686
	c-0.012,0.407,0.781,2.289,3.725,4.217c0,0-3.428-2.709-3.452-4.363C17.04,81.045,15.778,81.497,17.168,80.209z"/>
<path fill="#2384B0" d="M16.208,79.117c0,0,3.198,2.705,5.726,2.017c0,0,9.224-11.897,14.205-24.872c0,0-4.065-4.128-5.965-2.257
	C28.273,55.875,34.585,63.387,16.208,79.117z"/>
<path fill="#144A73" d="M16.208,79.117c0,0,0.135,0.114,0.37,0.289c2.808-1.727,7.513-7.66,10.787-12.003
	c4.328-5.743,2.809-13.398,2.809-13.398C28.273,55.875,34.585,63.387,16.208,79.117z"/>
<path fill="#FFFFFF" d="M36.439,34.413c0,0-5.077-0.349-6.022,1.313c-0.946,1.663,3.142,1.815,2.485,7.535
	c-0.658,5.719-0.59,10.412,2.314,10.117c2.904-0.295,3.238-0.584,4.568-1.831C41.113,50.302,36.439,34.413,36.439,34.413z"/>
<path fill="#8C8C8C" d="M35.601,34.679c0,0,2.943,8.033,2.599,18.162l1.501-0.904C39.701,51.937,39.606,38.844,35.601,34.679z"/>
<path fill="#FF0000" d="M34.765,36.947c0,0,2.803,4.831,3.225,12.024l-1.591,2.551l-1.35-2.15c0,0,1.245-4.934-0.609-12.335
	l-1.89-1.528l2.479-0.229L34.765,36.947z"/>
<path fill="#2384B0" d="M29.733,38.797c2.76,8.69-3.339,15.191-3.339,15.191c2.869,1.589,6.875,2.894,6.875,2.894
	c6.876-16.6-2.063-22.257-2.063-22.257s-0.803,0.428-1.665,1.616c-0.512,0.706,0.159,2.491,0.159,2.491"/>
<path fill="#144A73" d="M34.909,39.727c0.303,2.467,2.352,8.752-2.564,16.792c1.02,0.38,0.924,0.362,0.924,0.362
	C36.732,48.522,36.246,43.076,34.909,39.727z"/>
<path fill="#2384B0" d="M41.262,54.004c-0.19-9.028-2.309-16.104-3.816-19.037c-1.138-0.284-1.845-0.287-1.845-0.287
	c3.185,7.393,3.182,16.179,3.059,21.202C38.66,55.882,40.596,55.291,41.262,54.004z"/>
<path fill="#492420" d="M31.171,35.407c0,0,0.397,0.819,0.047,2.256l1.175,0.65l-0.341,0.758c0,0,1.971,1.499,2.456,4.345
	c0,0-0.206-2.499-2.152-4.451l0.341-0.758l-1.29-0.671C31.408,37.537,31.769,36.664,31.171,35.407z"/>
<path fill="#492420" d="M35.908,34.834c0,0,0.542,0.966,1.578,1.424l-0.366,0.676l0.639,0.664c0,0-0.333,1.146,0.3,4.233
	c0,0-0.676-2.234-0.522-4.128l-0.651-0.752l0.328-0.688C37.213,36.264,36.228,35.706,35.908,34.834z"/>
<path fill="#144A73" d="M32.721,56.695c0.717-0.366,1.262-0.745,0.404-0.735c-1.229,0.015-3.763-0.716-4.966-1.085
	C29.97,55.712,31.826,56.385,32.721,56.695z"/>
<path fill="#144A73" d="M38.66,55.882c0,0,1.936-0.591,2.602-1.878c-2.651,2.62-2.41-1.362-2.503-4.114
	c-0.016-0.476-0.108-1.254-0.211-1.609C38.74,51.203,38.71,53.851,38.66,55.882z"/>
<rect x="30.417" y="29.213" transform="matrix(0.3646 -0.9312 0.9312 0.3646 -1.6507 56.3202)" width="20.052" height="0.313"/>
<rect x="31.952" y="47.087" transform="matrix(0.5142 0.8576 -0.8576 0.5142 60.8746 -12.9918)" width="19.909" height="0.313"/>
<path fill="#FAC26F" d="M30.093,27.285c0,0,1.529,0.817,2.004-2.392c0,0,4.013,2.577,6.067,2.106c0,0-1.464,1.869-0.822,3.441
	c-0.018-0.043-0.43,0.329-0.443,0.344c-0.297,0.339-0.566,0.716-0.716,1.146c-0.167,0.482-0.137,0.963-0.135,1.464
	c0,0.08,0.043,0.57-0.058,0.565c0,0-3.019,0.446-5.074-0.994c0,0-0.773-2.095-0.66-3.989C30.257,28.977,29.806,27.787,30.093,27.285
	z"/>
<path fill="#3F3F3F" d="M29.493,26.41c0,0-1.297-4.083,2.542-3.025c0,0,2.201-3.099,6.655,0.044
	c4.453,3.142-1.188,5.668-6.414,1.912c0,0,0.698,3.356-1.895,1.858C30.38,27.198,29.65,27.095,29.493,26.41z"/>
<path fill="#C17E50" d="M35.465,28.776c0,0,0.591-0.375,0.85-0.025"/>
<path fill="#C17E50" d="M35.697,28.677c0.026-0.016,0.052-0.03,0.078-0.044c0.007-0.003,0.015-0.007,0.021-0.011
	c0.134-0.064,0.028-0.019-0.318,0.136c0.048-0.019,0.098-0.031,0.148-0.042c0.172-0.038,0.343-0.005,0.458,0.135
	c0.031,0.038,0.437-0.231,0.463-0.199c-0.173-0.212-0.45-0.158-0.674-0.066c-0.212,0.087-0.443,0.166-0.639,0.289
	C35.374,28.787,35.556,28.765,35.697,28.677L35.697,28.677z"/>
<path d="M40.258,25.926c-2.274,1.813-8.232-1.259-8.232-1.259l-0.023,0.055c-0.25,2.019-0.386,2.309-1.569,1.653
	c-0.276-0.154-0.672-0.319-1.067-0.497c0.059,0.318,0.127,0.533,0.127,0.533c0.157,0.685,0.887,0.788,0.887,0.788
	c2.593,1.498,1.895-1.858,1.895-1.858C35.942,27.976,39.813,27.519,40.258,25.926z"/>
<ellipse transform="matrix(0.9906 -0.1367 0.1367 0.9906 -3.5274 4.413)" fill="#FAC26F" cx="30.367" cy="27.889" rx="0.941" ry="1.243"/>
<path fill="#C17E50" d="M36.045,33.716c-1.594-0.227-4.609-1.019-4.609-1.019c-0.96-1.037-1.18-3.72-1.18-3.72
	c-0.113,1.894,0.66,3.989,0.66,3.989c1.98,1.388,4.904,1.074,5.11,1.079C36.032,34.045,36.044,33.751,36.045,33.716z"/>
<rect x="34.454" y="31.303" transform="matrix(0.9671 0.2545 -0.2545 0.9671 9.188 -7.9922)" fill="#FFFFFF" width="2.049" height="0.412"/>
<path fill="#FF0000" d="M43.152,20.927c1.594-0.139,3.231,0.46,4.734,1.731c3.259,2.757,5.592,8.325,6.087,14.53
	c0.751,9.422-2.882,17.457-8.099,17.912l0.037,0.427c2.664-0.231,5.013-2.287,6.613-5.787c1.582-3.459,2.248-7.929,1.876-12.586
	c-0.504-6.314-2.894-11.995-6.238-14.823c-1.592-1.347-3.338-1.98-5.049-1.832L43.152,20.927z"/>
<polygon fill="#7AB51D" points="66.832,36.853 63.438,35.103 63.562,36.197 36.292,38.632 36.321,38.974 63.75,37.861 
	63.892,39.112 "/>
<path fill="#21631D" d="M66.904,36.713l-3.394-1.75l-0.26-0.134l0.033,0.291l0.124,1.094l0.141-0.173l-27.271,2.436l-0.155,0.014
	l0.014,0.155l0.03,0.342l0.013,0.148l0.149-0.006l27.429-1.113l-0.162-0.139l0.142,1.251l0.031,0.275l0.219-0.169l2.94-2.26
	l0.195-0.15L66.904,36.713z M64.047,39.095l-0.142-1.251l-0.017-0.144l-0.145,0.006l-27.429,1.113l0.162,0.142l-0.03-0.342
	l-0.142,0.169l27.271-2.436l0.16-0.014l-0.018-0.159l-0.124-1.094l-0.227,0.156l3.395,1.75l-0.024-0.263l-2.94,2.26L64.047,39.095z"
	/>
<path fill="#FAC26F" d="M32.54,39.18c0,0,1.769-2.284,3.506-1.604c1.736,0.68,1.662,1.022,2.181,1.767
	c0.519,0.746,0.803,1.213,1.328,1.583c0.525,0.368-1.084,0.273-1.826-0.46c0,0,0.097,0.345-0.112,0.513c0,0,0.146,0.5-0.064,0.77
	s0.435,1.636-0.598,0.881c-1.033-0.754-1.621-1.466-2.924-1.385c0,0-0.463,0.043-0.795,0.398
	C32.904,41.996,31.211,38.678,32.54,39.18z"/>
<path fill="#E59429" d="M32.017,39.782c0,0,2.121-2.77,3.5-2.359c2.83,0.843,1.491,1.001,3.99,3.432c0,0-0.937-0.623-1.714-1.773
	c-0.777-1.15-2.529-1.876-3.724-1.055C33.269,38.576,32.017,39.782,32.017,39.782z"/>
<path fill="#E59429" d="M34.204,41.042c0,0,1.467-0.243,2.781,1.432c0.474,0.604,0.598,0.13,0.404-0.298c0,0,0.116,0.752-0.209,0.44
	C36.854,42.304,35.711,41.039,34.204,41.042z"/>
<path fill="#E59429" d="M37.814,39.993c0,0,0.548,0.943,1.559,0.879C39.373,40.872,38.6,40.651,37.814,39.993z"/>
<path fill="#E59429" d="M36.612,39.329c0,0,1.076,0.302,1.171,1.384C37.783,40.713,37.514,39.799,36.612,39.329z"/>
<path fill="#E59429" d="M36.485,40.084c0,0,1.076,0.303,1.172,1.385C37.657,41.469,37.388,40.555,36.485,40.084z"/>
<path fill="#E59429" d="M36.304,40.745c0,0,1.075,0.303,1.171,1.385C37.475,42.13,37.206,41.215,36.304,40.745z"/>
<path fill="#FFFFFF" d="M31.147,38.683l1.638-0.598c0,0-0.246,2.394,1.393,3.859c0,0-1.101,0.227-1.79,0.246
	S30.532,39.451,31.147,38.683z"/>
<path fill="#2384B0" d="M31.206,34.625c0,0-4.512,1.09-9.923,5.208c-6.639,5.053,11.919,2.295,11.919,2.295
	s-1.358-2.912-0.626-4.161c0,0-10.389,3.283-8.644,2.154c1.307-0.845,6.132-2.73,6.539-3.224
	C30.878,36.404,31.206,34.625,31.206,34.625z"/>
<path fill="#144A73" d="M32.739,40.926c-1.131,0.207-8.394,1.501-11.44,1.229c-0.788-0.07-1.229-0.232-1.444-0.438
	c0.309,2.349,13.348,0.412,13.348,0.412S32.963,41.614,32.739,40.926z"/>
<polygon fill="#428E16" points="130.634,24.673 132.43,24.77 134.856,34.373 133.061,34.277 "/>
<polygon fill="#8C0000" points="133.061,34.277 134.856,34.373 134.907,34.576 133.112,34.48 "/>
<polygon fill="#AC0000" points="133.061,34.277 133.073,34.268 133.112,34.48 "/>
<polygon fill="#8A0000" points="133.073,34.268 134.868,34.364 134.907,34.576 133.112,34.48 "/>
<polygon fill="#7D0000" points="133.146,34.258 134.942,34.354 134.907,34.576 133.112,34.48 "/>
<polygon fill="#AC0000" points="133.146,34.258 133.16,34.265 133.112,34.48 "/>
<g enable-background="new    ">
	<defs>
		<polygon id="SVGID_3_" enable-background="new    " points="133.146,34.258 134.942,34.354 134.955,34.36 133.16,34.265 		"/>
	</defs>
	<clipPath id="SVGID_4_">
		<use xlink:href="#SVGID_3_"  overflow="visible"/>
	</clipPath>
	<g clip-path="url(#SVGID_4_)" enable-background="new    ">
		<g>
			<polyline fill="#730000" points="133.146,34.258 134.942,34.354 134.955,34.36 133.16,34.265 133.146,34.258 			"/>
		</g>
	</g>
</g>
<polygon fill="#790000" points="133.16,34.265 134.955,34.36 134.907,34.576 133.112,34.48 "/>
<polygon fill="#600000" points="133.234,34.386 135.029,34.481 134.907,34.576 133.112,34.48 "/>
<polygon fill="#600000" points="133.237,34.398 135.032,34.495 134.907,34.576 133.112,34.48 "/>
<g enable-background="new    ">
	<defs>
		<polygon id="SVGID_2_" enable-background="new    " points="133.234,34.386 135.029,34.481 135.032,34.495 133.237,34.398 		"/>
	</defs>
	<clipPath id="SVGID_5_">
		<use xlink:href="#SVGID_2_"  overflow="visible"/>
	</clipPath>
	<g clip-path="url(#SVGID_5_)" enable-background="new    ">
		<g>
			<polyline fill="#820000" points="133.234,34.386 135.029,34.481 135.03,34.482 133.234,34.387 133.234,34.386 			"/>
		</g>
		<g>
			<polyline fill="#7E0000" points="133.234,34.387 135.03,34.482 135.032,34.495 133.237,34.398 133.234,34.387 			"/>
		</g>
	</g>
</g>
<polygon fill="#600000" points="133.242,34.448 135.038,34.544 134.907,34.576 133.112,34.48 "/>
<polygon fill="#AC0000" points="133.234,34.386 133.237,34.398 133.112,34.48 "/>
<g enable-background="new    ">
	<defs>
		<polygon id="SVGID_1_" enable-background="new    " points="133.242,34.449 135.038,34.544 135.038,34.551 135.038,34.561 
			133.243,34.465 133.243,34.456 		"/>
	</defs>
	<clipPath id="SVGID_6_">
		<use xlink:href="#SVGID_1_"  overflow="visible"/>
	</clipPath>
	<g clip-path="url(#SVGID_6_)" enable-background="new    ">
		<g>
			<polyline fill="#7A0000" points="133.242,34.449 135.038,34.544 135.038,34.551 135.038,34.561 133.243,34.465 133.243,34.456 
				133.242,34.449 			"/>
		</g>
	</g>
</g>
<polygon fill="#600000" points="133.243,34.465 135.038,34.561 134.907,34.576 133.112,34.48 "/>
<polygon fill="#AC0000" points="133.242,34.449 133.243,34.456 133.243,34.465 133.112,34.48 "/>
<path fill="#FF8000" d="M135.644,23.629c-0.048-0.004-0.097-0.008-0.145-0.011l-1.796-0.096c0.049,0.002,0.097,0.006,0.145,0.01
	c0.019,0.001,0.035,0.004,0.053,0.006c0.031,0.003,0.062,0.006,0.092,0.01c0.04,0.005,0.08,0.012,0.12,0.018
	c0.01,0.002,0.019,0.003,0.027,0.005c0.033,0.006,0.066,0.012,0.1,0.019c0.011,0.002,0.021,0.004,0.031,0.006
	c0.041,0.009,0.081,0.018,0.121,0.028c0.005,0.001,0.01,0.002,0.015,0.004c0.036,0.009,0.071,0.019,0.107,0.029
	c0.011,0.003,0.021,0.006,0.033,0.01c0.035,0.011,0.07,0.021,0.106,0.033c0.005,0.001,0.01,0.003,0.014,0.005
	c0.044,0.014,0.088,0.029,0.131,0.045l1.795,0.096c-0.011-0.004-0.021-0.008-0.031-0.011c-0.033-0.012-0.065-0.023-0.099-0.034
	c-0.005-0.001-0.011-0.003-0.017-0.005c-0.034-0.011-0.069-0.022-0.104-0.032c-0.012-0.003-0.023-0.007-0.034-0.01
	c-0.035-0.01-0.07-0.02-0.106-0.028c-0.005-0.001-0.01-0.003-0.016-0.004c-0.04-0.01-0.08-0.02-0.12-0.028
	c-0.011-0.002-0.021-0.004-0.032-0.007c-0.033-0.006-0.065-0.013-0.099-0.019c-0.01-0.001-0.019-0.003-0.028-0.005
	c-0.036-0.006-0.073-0.012-0.111-0.017c-0.003,0-0.006,0-0.009-0.001c-0.03-0.004-0.062-0.007-0.093-0.011
	C135.678,23.633,135.66,23.63,135.644,23.629z"/>
<polygon fill="#DB5700" points="134.798,23.751 136.593,23.847 134.942,34.354 133.146,34.258 "/>
<polygon fill="#0087A3" points="139.021,29.908 140.816,30.004 135.029,34.481 133.234,34.386 "/>
<path fill="#00E8FF" d="M135.581,24.138c0.004,0.002,0.007,0.004,0.011,0.007c0.045,0.028,0.089,0.057,0.133,0.087
	c0.01,0.007,0.02,0.014,0.029,0.02c0.044,0.03,0.088,0.061,0.131,0.093c0.004,0.003,0.009,0.006,0.013,0.01
	c0.04,0.03,0.08,0.061,0.12,0.092c0.009,0.007,0.019,0.014,0.027,0.021c0.042,0.033,0.084,0.068,0.125,0.103
	c0.008,0.006,0.016,0.013,0.023,0.02c0.035,0.03,0.069,0.06,0.104,0.091c0.012,0.01,0.023,0.021,0.035,0.031
	c0.042,0.039,0.084,0.078,0.126,0.118c0.004,0.004,0.008,0.008,0.012,0.012c0.037,0.037,0.074,0.074,0.111,0.112
	c0.013,0.013,0.024,0.025,0.037,0.038c0.03,0.032,0.062,0.064,0.091,0.097c0.012,0.012,0.022,0.024,0.033,0.036
	c0.04,0.044,0.08,0.089,0.119,0.135c0.005,0.005,0.01,0.011,0.014,0.017c0.035,0.041,0.069,0.082,0.104,0.124
	c0.012,0.014,0.023,0.028,0.034,0.042c0.022,0.028,0.045,0.057,0.067,0.085c0.029,0.038,0.059,0.076,0.088,0.115
	c0.018,0.023,0.034,0.046,0.052,0.07c0.031,0.043,0.062,0.086,0.093,0.13c0.014,0.02,0.028,0.04,0.043,0.061
	c0.044,0.064,0.088,0.13,0.131,0.196c0.002,0.003,0.004,0.006,0.006,0.009c0.041,0.064,0.082,0.129,0.123,0.196
	c0.013,0.022,0.026,0.045,0.04,0.067c0.028,0.048,0.057,0.096,0.084,0.144c0.016,0.026,0.031,0.053,0.046,0.081
	c0.026,0.046,0.052,0.093,0.077,0.14c0.015,0.028,0.03,0.056,0.045,0.084c0.025,0.049,0.051,0.098,0.076,0.148
	c0.014,0.026,0.027,0.052,0.04,0.079c0.031,0.062,0.062,0.125,0.091,0.188c0.007,0.015,0.015,0.029,0.021,0.044
	c0.041,0.087,0.081,0.175,0.12,0.265c0.011,0.025,0.021,0.051,0.032,0.077c0.03,0.07,0.06,0.14,0.088,0.211
	c0.011,0.025,0.021,0.05,0.03,0.075c0.037,0.093,0.073,0.187,0.108,0.282c0.005,0.014,0.01,0.029,0.016,0.044
	c0.03,0.083,0.06,0.166,0.088,0.25c0.01,0.028,0.02,0.057,0.029,0.085c0.026,0.081,0.053,0.163,0.079,0.246
	c0.006,0.02,0.013,0.038,0.018,0.058c0.031,0.101,0.062,0.202,0.091,0.305c0.007,0.025,0.014,0.05,0.021,0.075
	c0.022,0.081,0.045,0.163,0.065,0.246c0.008,0.03,0.016,0.06,0.023,0.089c0.026,0.106,0.053,0.212,0.077,0.321l1.796,0.096
	c-0.025-0.108-0.052-0.214-0.078-0.32c-0.007-0.031-0.016-0.061-0.023-0.091c-0.021-0.082-0.042-0.163-0.064-0.243
	c-0.007-0.026-0.015-0.052-0.021-0.078c-0.029-0.102-0.059-0.203-0.09-0.303c-0.006-0.021-0.013-0.041-0.02-0.061
	c-0.025-0.081-0.051-0.162-0.078-0.242c-0.01-0.029-0.02-0.059-0.029-0.088c-0.028-0.083-0.058-0.165-0.087-0.246
	c-0.005-0.016-0.011-0.032-0.017-0.047c-0.035-0.095-0.071-0.188-0.107-0.28c-0.011-0.025-0.021-0.051-0.031-0.076
	c-0.028-0.071-0.058-0.141-0.087-0.21c-0.011-0.025-0.022-0.052-0.033-0.077c-0.039-0.089-0.079-0.178-0.119-0.265
	c-0.001-0.002-0.001-0.003-0.002-0.005c-0.007-0.013-0.013-0.026-0.019-0.039c-0.03-0.063-0.061-0.126-0.091-0.188
	c-0.014-0.027-0.027-0.053-0.041-0.08c-0.024-0.05-0.05-0.099-0.076-0.148c-0.015-0.028-0.03-0.056-0.045-0.084
	c-0.025-0.046-0.051-0.093-0.076-0.138c-0.016-0.027-0.031-0.055-0.046-0.082c-0.028-0.048-0.056-0.095-0.084-0.142
	c-0.014-0.023-0.027-0.047-0.041-0.07c-0.04-0.064-0.079-0.128-0.119-0.19c-0.004-0.004-0.007-0.009-0.009-0.014
	c-0.044-0.066-0.087-0.131-0.132-0.196c-0.014-0.021-0.029-0.042-0.044-0.063c-0.03-0.043-0.061-0.085-0.091-0.127
	c-0.018-0.024-0.035-0.047-0.053-0.071c-0.029-0.039-0.059-0.077-0.088-0.115c-0.01-0.013-0.02-0.026-0.029-0.039
	c-0.013-0.016-0.025-0.031-0.038-0.047c-0.011-0.014-0.022-0.028-0.033-0.042c-0.035-0.043-0.069-0.085-0.104-0.126
	c-0.005-0.005-0.009-0.01-0.013-0.015c-0.04-0.046-0.08-0.091-0.12-0.135c-0.011-0.012-0.021-0.023-0.032-0.035
	c-0.03-0.033-0.062-0.066-0.092-0.098c-0.012-0.013-0.024-0.025-0.036-0.038c-0.037-0.038-0.075-0.076-0.112-0.113
	c-0.004-0.003-0.008-0.007-0.012-0.011c-0.041-0.041-0.083-0.08-0.126-0.118c-0.012-0.011-0.023-0.021-0.035-0.032
	c-0.017-0.016-0.034-0.031-0.052-0.046c-0.017-0.015-0.034-0.03-0.052-0.045c-0.008-0.006-0.015-0.013-0.022-0.02
	c-0.042-0.035-0.084-0.069-0.126-0.103c-0.009-0.007-0.018-0.014-0.026-0.021c-0.04-0.032-0.081-0.063-0.121-0.093
	c-0.004-0.003-0.008-0.006-0.012-0.009c-0.044-0.032-0.088-0.063-0.132-0.093c-0.01-0.006-0.019-0.013-0.028-0.02
	c-0.044-0.03-0.089-0.059-0.133-0.087c-0.004-0.002-0.007-0.004-0.011-0.006c-0.026-0.017-0.054-0.033-0.08-0.049
	c-0.021-0.013-0.043-0.025-0.064-0.038l-1.795-0.096C135.485,24.08,135.533,24.108,135.581,24.138z"/>
<polygon fill="#AF2804" points="139.424,32.943 141.22,33.039 135.038,34.544 133.242,34.448 "/>
<path fill="#F96D3D" d="M141.034,31.155c-0.009-0.061-0.019-0.122-0.029-0.183c-0.005-0.029-0.009-0.058-0.014-0.087
	c-0.016-0.088-0.03-0.176-0.047-0.264l-1.796-0.096c0.017,0.087,0.032,0.176,0.047,0.265c0.005,0.028,0.01,0.056,0.014,0.084
	c0.011,0.062,0.021,0.125,0.03,0.187c0.005,0.032,0.01,0.064,0.015,0.096c0.009,0.062,0.018,0.125,0.025,0.187
	c0.005,0.03,0.009,0.06,0.013,0.09c0.011,0.079,0.021,0.159,0.029,0.239c0.002,0.012,0.003,0.024,0.005,0.037
	c0.011,0.093,0.021,0.187,0.029,0.28c0.003,0.026,0.005,0.051,0.008,0.077c0.006,0.069,0.012,0.139,0.018,0.209
	c0.003,0.031,0.005,0.063,0.008,0.095c0.006,0.068,0.01,0.137,0.015,0.206c0.002,0.027,0.004,0.054,0.005,0.081
	c0.006,0.095,0.012,0.19,0.016,0.286l1.796,0.096c-0.005-0.095-0.01-0.19-0.016-0.284c-0.002-0.029-0.004-0.058-0.006-0.087
	c-0.002-0.037-0.005-0.073-0.007-0.11c-0.002-0.03-0.005-0.06-0.007-0.089c-0.003-0.033-0.006-0.066-0.008-0.1
	c-0.006-0.068-0.012-0.135-0.019-0.202c-0.002-0.027-0.005-0.055-0.008-0.083c-0.009-0.093-0.019-0.186-0.029-0.278
	c-0.002-0.016-0.004-0.031-0.005-0.046c-0.009-0.077-0.019-0.154-0.028-0.23c-0.004-0.032-0.009-0.063-0.013-0.095
	c-0.009-0.061-0.017-0.121-0.026-0.181C141.044,31.222,141.039,31.188,141.034,31.155z"/>
<path fill="#E64500" d="M139.148,30.525c0.143,0.765,0.237,1.574,0.275,2.417l-6.182,1.505l-0.13,0.032l0.125-0.082L139.148,30.525z
	"/>
<path fill="#428E16" d="M141.238,33.821l-1.795-0.096c0,0.083,0,0.165,0,0.247c-0.001,0.024-0.001,0.049-0.001,0.074
	c-0.001,0.049-0.002,0.099-0.003,0.148c-0.002,0.086-0.004,0.173-0.007,0.26c-0.001,0.023-0.001,0.046-0.002,0.069
	c-0.004,0.108-0.01,0.215-0.015,0.322c-0.002,0.028-0.004,0.056-0.006,0.083c-0.005,0.082-0.01,0.164-0.016,0.245
	c-0.002,0.034-0.005,0.067-0.008,0.101c-0.006,0.088-0.014,0.176-0.021,0.263c-0.002,0.02-0.004,0.04-0.006,0.06
	c-0.009,0.102-0.02,0.203-0.03,0.304c-0.003,0.026-0.007,0.053-0.01,0.08c-0.009,0.076-0.018,0.151-0.027,0.226
	c-0.004,0.034-0.009,0.068-0.014,0.102c-0.009,0.071-0.019,0.143-0.029,0.213c-0.004,0.03-0.009,0.061-0.013,0.092
	c-0.016,0.099-0.03,0.197-0.047,0.294c0,0.001,0,0.003,0,0.004c-0.018,0.1-0.035,0.199-0.053,0.298
	c-0.006,0.03-0.012,0.06-0.018,0.089c-0.013,0.071-0.027,0.143-0.041,0.214c-0.007,0.032-0.013,0.063-0.02,0.094
	c-0.017,0.08-0.034,0.159-0.052,0.238c-0.004,0.019-0.008,0.037-0.012,0.056c-0.022,0.097-0.045,0.194-0.068,0.29
	c-0.005,0.021-0.01,0.041-0.015,0.062c-0.021,0.084-0.043,0.168-0.064,0.251c-0.007,0.028-0.015,0.055-0.021,0.083
	c-0.027,0.101-0.056,0.201-0.084,0.3c-0.001,0.003-0.002,0.006-0.003,0.009c-0.027,0.097-0.057,0.192-0.086,0.287
	c-0.009,0.028-0.018,0.055-0.025,0.083c-0.025,0.079-0.052,0.159-0.077,0.237c-0.008,0.021-0.015,0.042-0.021,0.063
	c-0.008,0.024-0.016,0.047-0.024,0.071c-0.016,0.047-0.032,0.094-0.049,0.141c-0.01,0.027-0.02,0.055-0.029,0.082
	c-0.016,0.043-0.031,0.086-0.047,0.129c-0.011,0.028-0.021,0.056-0.032,0.084c-0.016,0.042-0.032,0.084-0.048,0.126
	c-0.011,0.027-0.021,0.054-0.032,0.081c-0.018,0.045-0.035,0.088-0.053,0.132c-0.01,0.024-0.02,0.048-0.029,0.071
	c-0.024,0.058-0.049,0.116-0.073,0.173c-0.004,0.009-0.007,0.018-0.011,0.027c-0.028,0.066-0.058,0.131-0.087,0.196
	c-0.009,0.021-0.019,0.041-0.028,0.062c-0.02,0.043-0.039,0.086-0.059,0.128c-0.02,0.042-0.04,0.083-0.06,0.125
	c-0.015,0.029-0.028,0.058-0.042,0.086c-0.021,0.043-0.043,0.086-0.065,0.129c-0.013,0.025-0.025,0.052-0.038,0.077
	c-0.026,0.05-0.052,0.099-0.078,0.148c-0.01,0.018-0.02,0.036-0.029,0.054c-0.036,0.067-0.072,0.133-0.109,0.199
	c-0.007,0.013-0.015,0.026-0.022,0.039c-0.029,0.052-0.059,0.104-0.089,0.155c-0.014,0.023-0.027,0.046-0.042,0.069
	c-0.024,0.041-0.048,0.081-0.072,0.121c-0.016,0.025-0.032,0.05-0.048,0.076c-0.023,0.037-0.046,0.074-0.069,0.109
	c-0.017,0.026-0.034,0.052-0.052,0.078c-0.022,0.034-0.045,0.069-0.068,0.103c-0.018,0.026-0.035,0.052-0.053,0.078
	c-0.023,0.033-0.046,0.066-0.068,0.098c-0.019,0.026-0.037,0.051-0.056,0.077c-0.022,0.032-0.046,0.063-0.069,0.094
	c-0.019,0.025-0.038,0.05-0.057,0.076c-0.023,0.031-0.047,0.061-0.07,0.091c-0.02,0.024-0.038,0.049-0.058,0.073
	c-0.023,0.03-0.048,0.059-0.071,0.089c-0.02,0.023-0.039,0.047-0.059,0.07c-0.024,0.029-0.049,0.058-0.073,0.086
	c-0.02,0.023-0.039,0.045-0.059,0.068c-0.025,0.028-0.051,0.057-0.076,0.084c-0.02,0.021-0.039,0.043-0.059,0.064
	c-0.026,0.028-0.053,0.056-0.079,0.083c-0.019,0.021-0.038,0.041-0.057,0.06c-0.028,0.029-0.057,0.057-0.085,0.084
	c-0.018,0.018-0.036,0.036-0.054,0.054c-0.032,0.031-0.064,0.062-0.098,0.092c-0.014,0.014-0.028,0.027-0.043,0.041
	c-0.047,0.043-0.094,0.085-0.142,0.127c-0.007,0.005-0.013,0.01-0.019,0.015c-0.042,0.036-0.084,0.071-0.126,0.105
	c-0.017,0.014-0.034,0.027-0.051,0.041c-0.031,0.025-0.063,0.051-0.095,0.075c-0.02,0.015-0.04,0.029-0.06,0.044
	c-0.029,0.022-0.06,0.044-0.089,0.065c-0.021,0.015-0.042,0.03-0.063,0.044c-0.028,0.02-0.058,0.04-0.086,0.059
	c-0.022,0.015-0.044,0.029-0.066,0.043c-0.028,0.019-0.057,0.037-0.085,0.055c-0.022,0.014-0.045,0.027-0.068,0.041
	c-0.028,0.017-0.057,0.034-0.085,0.05c-0.022,0.013-0.046,0.026-0.069,0.039c-0.028,0.016-0.057,0.031-0.085,0.046
	c-0.023,0.012-0.047,0.024-0.07,0.036c-0.029,0.015-0.058,0.029-0.087,0.043c-0.023,0.011-0.047,0.022-0.07,0.033
	c-0.029,0.014-0.059,0.026-0.088,0.039c-0.023,0.01-0.047,0.021-0.07,0.03c-0.03,0.012-0.061,0.024-0.09,0.036
	c-0.023,0.009-0.047,0.018-0.07,0.027c-0.031,0.011-0.063,0.022-0.093,0.033c-0.023,0.008-0.046,0.016-0.068,0.023
	c-0.032,0.011-0.065,0.021-0.098,0.03c-0.021,0.006-0.043,0.013-0.065,0.019c-0.036,0.01-0.072,0.019-0.109,0.028
	c-0.018,0.005-0.036,0.01-0.054,0.014c-0.055,0.013-0.109,0.024-0.165,0.035c-0.303,0.057-0.602,0.077-0.896,0.062l1.795,0.096
	c0.294,0.016,0.593-0.004,0.896-0.062c0.055-0.01,0.109-0.022,0.164-0.035c0.019-0.004,0.036-0.009,0.055-0.014
	c0.036-0.009,0.073-0.018,0.109-0.028c0.021-0.006,0.043-0.013,0.064-0.02c0.033-0.01,0.065-0.02,0.098-0.03
	c0.023-0.007,0.046-0.016,0.068-0.023c0.031-0.01,0.063-0.021,0.093-0.033c0.023-0.008,0.047-0.018,0.07-0.026
	c0.03-0.012,0.061-0.023,0.09-0.036c0.023-0.01,0.047-0.02,0.07-0.03c0.029-0.013,0.059-0.026,0.089-0.039
	c0.022-0.011,0.046-0.022,0.069-0.033c0.029-0.014,0.059-0.028,0.087-0.043c0.023-0.012,0.047-0.024,0.07-0.036
	c0.028-0.015,0.057-0.031,0.086-0.046c0.022-0.013,0.046-0.025,0.068-0.039c0.029-0.017,0.058-0.033,0.086-0.05
	c0.022-0.013,0.045-0.027,0.067-0.041c0.029-0.018,0.058-0.036,0.086-0.055c0.021-0.014,0.044-0.028,0.065-0.042
	c0.029-0.02,0.058-0.04,0.087-0.06c0.021-0.015,0.042-0.029,0.063-0.044c0.03-0.021,0.06-0.043,0.09-0.065
	c0.02-0.015,0.039-0.029,0.059-0.044c0.032-0.024,0.064-0.05,0.096-0.076c0.017-0.013,0.033-0.026,0.05-0.04
	c0.043-0.035,0.085-0.07,0.127-0.106c0.006-0.005,0.012-0.009,0.018-0.015c0.048-0.042,0.096-0.084,0.143-0.127
	c0.014-0.013,0.028-0.026,0.042-0.04c0.032-0.031,0.065-0.062,0.099-0.093c0.018-0.017,0.035-0.035,0.053-0.053
	c0.028-0.028,0.057-0.056,0.085-0.085c0.02-0.019,0.038-0.04,0.057-0.059c0.026-0.028,0.054-0.056,0.08-0.084
	c0.02-0.021,0.038-0.042,0.058-0.063c0.025-0.028,0.051-0.057,0.076-0.085c0.02-0.022,0.039-0.044,0.059-0.067
	c0.024-0.029,0.049-0.058,0.073-0.087c0.02-0.023,0.039-0.046,0.059-0.07c0.023-0.029,0.048-0.059,0.072-0.089
	c0.019-0.024,0.038-0.048,0.057-0.073c0.024-0.031,0.048-0.061,0.071-0.092c0.019-0.024,0.037-0.049,0.056-0.074
	c0.023-0.032,0.047-0.063,0.07-0.096c0.018-0.025,0.036-0.05,0.055-0.076c0.022-0.033,0.046-0.065,0.068-0.099
	c0.018-0.025,0.036-0.051,0.054-0.077c0.022-0.034,0.046-0.069,0.068-0.104c0.018-0.026,0.034-0.051,0.051-0.077
	c0.023-0.037,0.047-0.074,0.07-0.11c0.016-0.025,0.031-0.049,0.047-0.075c0.024-0.04,0.05-0.082,0.074-0.123
	c0.013-0.022,0.027-0.044,0.04-0.067c0.03-0.052,0.061-0.104,0.091-0.157c0.007-0.013,0.014-0.025,0.021-0.038
	c0.036-0.065,0.073-0.132,0.109-0.198c0.009-0.018,0.019-0.035,0.027-0.052c0.026-0.05,0.053-0.1,0.079-0.151
	c0.013-0.025,0.025-0.05,0.038-0.075c0.022-0.044,0.044-0.087,0.065-0.131c0.014-0.028,0.027-0.057,0.041-0.085
	c0.021-0.042,0.041-0.083,0.061-0.126c0.004-0.008,0.008-0.016,0.012-0.024c0.016-0.034,0.031-0.068,0.047-0.103
	c0.01-0.021,0.02-0.042,0.029-0.063c0.029-0.064,0.058-0.129,0.086-0.195c0.004-0.009,0.008-0.018,0.011-0.026
	c0.025-0.058,0.05-0.115,0.074-0.174c0.009-0.023,0.019-0.046,0.028-0.07c0.018-0.044,0.036-0.089,0.054-0.134
	c0.01-0.026,0.021-0.053,0.03-0.08c0.017-0.042,0.033-0.085,0.05-0.128c0.011-0.027,0.021-0.055,0.03-0.082
	c0.017-0.043,0.032-0.087,0.049-0.131c0.009-0.027,0.019-0.054,0.028-0.08c0.017-0.047,0.033-0.095,0.05-0.143
	c0.008-0.023,0.017-0.046,0.023-0.07c0.003-0.007,0.005-0.014,0.008-0.02c0.005-0.015,0.009-0.029,0.014-0.043
	c0.026-0.079,0.052-0.158,0.077-0.238c0.009-0.027,0.017-0.054,0.025-0.082c0.029-0.095,0.059-0.19,0.087-0.286
	c0.001-0.003,0.002-0.007,0.002-0.01c0.029-0.099,0.057-0.199,0.084-0.299c0.007-0.028,0.015-0.057,0.022-0.085
	c0.021-0.081,0.042-0.162,0.063-0.244c0.004-0.017,0.008-0.033,0.012-0.049c0.002-0.006,0.004-0.013,0.005-0.02
	c0.023-0.095,0.046-0.19,0.067-0.287c0.005-0.02,0.009-0.04,0.014-0.061c0.017-0.077,0.034-0.155,0.05-0.233
	c0.007-0.032,0.013-0.063,0.02-0.095c0.015-0.071,0.028-0.142,0.042-0.214c0.005-0.03,0.011-0.06,0.017-0.089
	c0.019-0.099,0.036-0.198,0.053-0.298c0-0.001,0-0.002,0-0.002c0.001-0.007,0.002-0.013,0.003-0.02
	c0.016-0.091,0.03-0.183,0.044-0.275c0.004-0.032,0.009-0.064,0.014-0.097c0.01-0.069,0.02-0.139,0.029-0.209
	c0.004-0.034,0.009-0.069,0.014-0.104c0.009-0.075,0.019-0.149,0.026-0.225c0.003-0.027,0.007-0.054,0.01-0.081
	c0.011-0.101,0.021-0.202,0.031-0.304c0-0.004,0.001-0.008,0.001-0.013c0.002-0.016,0.003-0.031,0.004-0.047
	c0.008-0.087,0.016-0.175,0.022-0.263c0.002-0.034,0.005-0.067,0.007-0.101c0.006-0.081,0.012-0.163,0.017-0.244
	c0.001-0.028,0.003-0.056,0.005-0.084c0.006-0.107,0.011-0.214,0.015-0.322c0.001-0.023,0.001-0.047,0.002-0.07
	c0.003-0.085,0.005-0.172,0.007-0.258c0-0.017,0.001-0.034,0.002-0.051c0-0.034,0-0.067,0.001-0.101
	c0-0.022,0.001-0.045,0.001-0.067C141.238,33.988,141.239,33.904,141.238,33.821z"/>
<path fill="#00C7E8" d="M135.438,24.052c1.634,0.941,2.944,3.063,3.583,5.856l-5.786,4.478l-0.122,0.094l0.048-0.215L135.438,24.052
	z"/>
<path fill="#7AB51D" d="M130.634,24.673l2.427,9.604l0.052,0.203l0.131-0.016l6.2-0.739c0.026,5.838-2.622,11.006-6.029,11.652
	c-3.493,0.662-6.46-3.68-6.627-9.698C126.657,30.991,128.266,26.668,130.634,24.673z"/>
<path fill="#FFBF00" d="M132.81,23.583c0.689-0.13,1.357-0.066,1.988,0.167l-1.651,10.507l-0.034,0.222l-0.039-0.212l-1.84-10.038
	C131.734,23.908,132.262,23.688,132.81,23.583z"/>
<rect x="131.566" y="52.429" transform="matrix(-0.2268 -0.9739 0.9739 -0.2268 121.6009 201.8129)" fill="#8C8C8C" width="18.688" height="0.416"/>
<rect x="131.105" y="52.854" transform="matrix(-0.2279 -0.9737 0.9737 -0.2279 120.2542 201.4843)" fill="#8C8C8C" width="17.819" height="0.416"/>
<polygon fill="#8C8C8C" points="136.926,45.805 138.218,61.676 138.231,61.84 138.395,61.865 142.205,62.444 142.268,62.032 
	138.457,61.453 138.633,61.642 137.341,45.771 "/>
<polygon fill="#8C8C8C" points="133.301,46.569 131.323,60.641 131.441,60.481 130.569,60.889 130.725,60.88 128.03,59.969 
	127.896,60.363 130.591,61.274 130.67,61.301 130.746,61.266 131.618,60.859 131.721,60.811 131.736,60.699 133.713,46.627 "/>
<rect x="123.345" y="53.135" transform="matrix(0.2549 -0.967 0.967 0.2549 45.2524 165.4136)" fill="#8C8C8C" width="13.229" height="0.416"/>
<rect x="124.559" y="53.31" transform="matrix(0.1487 -0.9889 0.9889 0.1487 59.2669 175.8838)" fill="#8C8C8C" width="14.465" height="0.417"/>
<rect x="66.209" y="33.176" fill="#B2B2B2" width="8.595" height="17.814"/>
<rect x="55.989" y="42.968" fill="#B2B2B2" width="8.595" height="8.439"/>
<rect x="76.843" y="36.959" fill="#B2B2B2" width="8.596" height="13.126"/>
<rect x="86.794" y="22.479" fill="#B2B2B2" width="8.596" height="26.878"/>
<rect x="97.169" y="41.803" fill="#B2B2B2" width="8.596" height="8.751"/>
<rect x="107.013" y="36.803" fill="#B2B2B2" width="8.596" height="14.22"/>
<rect x="116.855" y="26.491" fill="#B2B2B2" width="8.596" height="25.157"/>
<rect x="58.917" y="44.697" fill="#FFFFFF" width="1.875" height="1.406"/>
<rect x="68.447" y="34.854" fill="#FFFFFF" width="1.406" height="3.125"/>
<rect x="68.916" y="40.322" fill="#FFFFFF" width="0.313" height="2.5"/>
<rect x="68.76" y="45.322" fill="#FFFFFF" width="1.563" height="1.406"/>
<rect x="72.354" y="41.572" fill="#FFFFFF" width="0.938" height="1.406"/>
<rect x="80.479" y="39.385" fill="#FFFFFF" width="0.938" height="0.781"/>
<rect x="82.197" y="43.447" fill="#FFFFFF" width="0.937" height="0.469"/>
<rect x="83.446" y="47.041" fill="#FFFFFF" width="1.25" height="0.156"/>
<rect x="88.759" y="26.417" fill="#FFFFFF" width="1.094" height="1.719"/>
<rect x="91.415" y="28.604" fill="#FFFFFF" width="1.094" height="2.344"/>
<rect x="89.54" y="41.416" fill="#FFFFFF" width="0.938" height="1.406"/>
<rect x="99.696" y="44.697" fill="#FFFFFF" width="1.405" height="1.094"/>
<rect x="110.789" y="39.541" fill="#FFFFFF" width="1.094" height="1.406"/>
<rect x="118.758" y="42.51" fill="#FFFFFF" width="0.469" height="1.875"/>
<rect x="113.133" y="44.541" fill="#FFFFFF" width="1.563" height="2.344"/>
<rect x="118.602" y="27.823" fill="#FFFFFF" width="1.406" height="2.968"/>
<rect x="123.288" y="29.542" fill="#FFFFFF" width="1.719" height="1.094"/>
<rect x="120.164" y="33.917" fill="#FFFFFF" width="1.562" height="0.625"/>
<rect x="122.976" y="38.291" fill="#FFFFFF" width="0.625" height="2.813"/>
</svg>
