<?xml version="1.0" encoding="utf-8"?>
<!-- Generator: Adobe Illustrator 15.0.2, SVG Export Plug-In . SVG Version: 6.00 Build 0)  -->
<!DOCTYPE svg PUBLIC "-//W3C//DTD SVG 1.1//EN" "http://www.w3.org/Graphics/SVG/1.1/DTD/svg11.dtd">
<svg version="1.1" id="Layer_2" xmlns="http://www.w3.org/2000/svg" xmlns:xlink="http://www.w3.org/1999/xlink" x="0px" y="0px"
	 width="100px" height="150px" viewBox="0 0 100 150" style="enable-background:new 0 0 100 150;" xml:space="preserve">
<style type="text/css">
<![CDATA[
	.st0{display:none;fill:#FF6B01;}
	.st1{opacity:0.78;fill:#B34B00;}
	.st2{opacity:0.98;}
	.st3{fill:none;}
	.st4{opacity:0.23;fill:#B34B00;}
]]>
</style>
<rect x="-7450" y="-4925" class="st0" width="15000" height="10000"/>
<g class="st2">
	<path class="st1" d="M4.2-399l0.1-26H-5.9L-6-402.2l-0.5,0.3c-86.4,47.1-236.9,30.7-286.9,22.4l-30.3-45.5h-11.8l34.5,50.4
		c-11.8,97.9-160.2,168.4-197.9,188.1l-113.3-58.7c20.3-11.1,67.6-37.9,115.6-71.8c56.2-39.5,95.7-75.7,118.1-108h-4.2
		c-55.6,77.9-206.6,152.5-243.3,172.6l-74-38.3v10.4l74.7,38.7l0,0l0.2,0.9c11.7,72.4-50.4,169.7-67.6,194.8l-7.2-1.2v9l3.7,0.6
		c135,113.3,46.5,444.4,35.5,489.3l-39.2,22v10.7l60.9-35.6c76.9,9,166.5,72.8,229.5,126.1h5.1c-9.1-7.8-18.8-15.8-28.9-23.8
		c-54.2-43-132.2-95.1-201.5-104.7l109.8-64.2l-0.3,1.3l1.5,0.1c101.2,8.6,232.1,139.5,252.5,160.5l-17.1,30.8h11.4l16-28.8
		c76.9-14.4,163.8,6.5,227.4,28.8h7.7c-7.6-2.7-15.5-5.5-23.8-8.1c-55.9-18.1-136.7-36.3-209.8-23.3l61.5-110.8
		c95-19.3,211.7,35.8,234.8,47.4L49,575h10.3l-12.8-97.7c54.5-52.6,211.3-23.8,212.8-23.5l-6.2-4.9l-4.5-0.8
		c0.1-0.7,0.2-1.4,0.3-2.1L335.8,565c-0.1,0.4-0.2,0.9-0.2,1.3c-8.9-1.4-57.2-8.6-112-7.5c-35.5,0.7-66.7,4.6-92.9,11.8
		c-5,1.4-9.8,2.9-14.4,4.4h8.2c87.6-26.7,210.4-6.4,212-6.2l1.5,0.3l0.1-1l5,6.9h12.2l-14.5-19.9c19.8-71.4,117.9-95.3,118.9-95.5
		l1.4-0.3l-0.1-0.4l102.5,81.3c-10.2,2.8-38.1,11.4-66.8,28c-3.6,2.1-7.3,4.3-11,6.7h6.1c32.9-20.5,66.1-30.2,74.6-32.5l41,32.5
		h15.3l-56.3-44.6c-57-178.9,116.9-379,141-410.6L800,124v-8.9l-120.7-5.7C564.7,9.2,618-246.1,631.8-308.3L800-403.1v-14.6
		l-172,101c0.2-0.9,0,0.1,0,0l6.9,0.1l0.5-2.6C543-347.6,487-390.8,463-425h-4.2c2.2,3.3,4.6,6.6,7.3,10
		c23.5,30.1,70,71.6,158.2,98.9c-0.2,0.8-0.5,2-0.8,3.5l-120,73.3c-115.8-36.7-142.5-104-147.6-121.7l51.9-63.9h-12.6l-48.2,59.4
		C196.3-345.2,43.3-387.2,4.2-399z M-186.7-360.3C-132.9-362.7-58-371.5-6-399.4l-0.6,122l0,0c-61.1,45.8-164.9,30.3-202.1,28.5
		l-73.4-112C-264.9-359.9-228.9-358.4-186.7-360.3z M125.6,366.5c-29.5,0.6-68,5.6-90.2,25.1L21.1,282.8
		c30.6-20.9,94.6-17.4,95.2-17.3l0.4,0l0.1-0.3l74,101.3c-0.3,1.4-0.6,2.9-0.8,4.3C184.9,370,157.1,365.9,125.6,366.5z
		 M-105.6-162.2c28.6-1.4,68.7-6.5,98.6-22.3L-7.6-70.4c-36.4,13.6-79.8,1.9-80.2,1.7l-0.5-0.1l-0.1,0.4c-0.3,1.1-0.7,2.2-1.2,3.2
		l-63.2-97.2C-143-161.8-125.7-161.2-105.6-162.2z M76.2,265.8c-17.4,1.8-40,6-55.2,16.1l-7.7-59.2c20.6-12.2,54.9-15.3,61-15.8
		l41.9,57.3c0,0.1-0.1,0.3-0.1,0.4C113.2,264.5,96.1,263.8,76.2,265.8z M-7.6-69.5l-0.2,53.3c-23.9,4.6-48.2-3.2-48.4-3.3l-0.4-0.1
		l-0.1,0.3c-0.3,0.9-0.8,1.8-1.3,2.8l-31-47.7c0.6-1.2-7.5-7.2-7.1-8.4c2.4,0.6,21.8,8.1,36.2,9.2C-46.1-62.3-26.1-62.6-7.6-69.5z
		 M100.7-61.8L66-19c-40,0.5-62.7-0.2-62.9-0.2H3l-0.1,0c-0.2,0.1-0.5,0.2-0.7,0.2l0.3-50.8C17-66.8,55-60.4,100.7-61.8z M-84.5,208
		l-25,45c-4-4.3-15.7-16.7-30.4-29.5c-14.9-13-35.7-28.7-54.3-34.6L-143,159c25.9,8.9,57.5,48,58.3,48.9l0.1,0.2L-84.5,208z
		 M65.5-18.4L1.8,60.2l0.4-78.4c0.3-0.1,0.6-0.2,0.9-0.3C4.5-18.5,26.8-17.9,65.5-18.4z M-5.1,68.6L-6.2,70l1.5,1l-1.3,0.8l4.2,5.8
		l-4.5-0.2l-0.6,3.9l-2.5,1.1l-1.5-0.7l0.5-0.3l-3.8-5.2l1.6-5l0.2,0.3L-5.1,68.6z M1.5,77.7l0.2-3.1L109.3,12
		c0.2,6,0.8,15.1,2.3,25.2c2.1,14.2,6.5,32.8,15.4,46.5L1.5,77.7z M-34.7,64.2l-95.4-16c5.7-7.5,11.9-17.7,12.6-26.9L-34.7,64.2z
		 M-107.5,16.5c5-2.1,11.4-4.9,17.9-8.2C-78.4,2.6-69.9-2.9-64.1-8.2L-17.7,63L-107.5,16.5z M-118.2,21c-0.5,9.3-6.9,19.7-12.6,27.2
		L-191.1,38c8-10.7,19.5-28.7,20-44.5L-118.2,21z M-137.2,55.8c-1.6,1.8-2.6,2.8-2.7,2.8l-0.2,0.2l0.2,0.2
		c19.6,22.3,3.7,70.7-3.9,90.2l-54.5,31.8c3.3-9.6,9.2-28.1,12.8-48.8c3.1-17.6,3.9-33.2,2.5-46.5c-1.8-16.5-7-29.4-15.6-38.3
		c0.2-0.3,0.7-0.8,1.3-1.5L-137.2,55.8z M-133.5,119c2.9-12.3,4.1-23.3,3.7-32.7c-0.5-11.7-3.7-20.9-9.4-27.5
		c0.4-0.4,1.4-1.4,2.7-2.9l118.5,19.8l-124.9,72.9C-140,141.4-136.3,130.7-133.5,119z M110,11.5l59-36c0,0,0.1,0,0.1,0.1
		c-0.3,2.6-2.2,22.6-0.4,46.2c1.6,19.8,6.2,45.8,18.9,64.6l-59.8-2.8C113.3,61.9,110.5,26.4,110,11.5z M14.7,59.2l60.8-74.9
		c3.4,3.5,11.6,9.9,30.6,19L14.7,59.2z M-7.6,63.5l0,3.8l-50-83.2c0.6-1-4.9-5.7-4.5-6.7c1.6,0.5,15.1,6.5,25.2,7.7
		c7.8,0.9,18.4,1.4,29.1-0.7L-7.6,63.5z M-64.5-8.8c-11.4,10.5-31.7,19.9-43.7,24.9l-54.5-28.2c7.4-3.3,18.6-8.7,30-15.2
		c17.6-10,30.2-19.4,37.7-28.2L-64.5-8.8z M-172.1-6.9c-0.2,15.8-12,34.1-20.1,44.8l-134-22.4c9.2-12.8,35.5-52.5,33.6-84.7
		L-172.1-6.9z M-198.3,45.6c-11.1-2.2-2.7-5-2.7-5l-4.9,1.4l-3.5,0.7c32.2,32.9,17.5,116.9,9.8,139l-106.2,62
		c2.9-11.8,11.2-48,13.7-88.7c1.8-29,0.3-54.6-4.4-75.9c-5.1-23-13.9-41.2-26.4-54.2L-198.3,45.6z M-105.2,184.7
		c-10-9.7-24.1-21.5-37.1-26.1L-16,84.8l-68.2,122.6c0,0-0.1,0-0.1,0C-85.3,206.1-93.9,195.7-105.2,184.7z M-72.9,207.3l63.6-116
		L7.3,224.7c-5-1.9-19.4-5-32.2-8.6C-38.2,212.2-56.3,208-72.9,207.3z M-2.6,101.7l76.4,104.6c-3.5,0.3-13.6,1.2-25.3,3.5
		c-10.8,2.2-24.8,5.9-35.4,12.2L-2.6,101.7z M7.6,99.4l90.5,71.8c-5.1,5.3-13.5,15-19.1,25.8L7.6,99.4z M79.4,197.6
		c5.6-10.9,14.1-20.6,19.2-26l50.8,40.3c-6.1,6.2-21,22.6-29.3,41.4L79.4,197.6z M102.5,163c-3.6-33.1,20-64.7,27.7-73.4l64.6,3.6
		c-2.2,2.2-15.1,17.7-26.5,37c-7.2,12.3-12.4,24.6-15.4,36.6c-3,11.8-3.8,23.3-2.4,34.2L102.5,163z M114.3,112.5
		c-7,12-14.5,30.1-12.5,49.9L5.9,86.5l-2.8-4.2l125.5,7.3C125.3,93.3,119.6,103.1,114.3,112.5z M188.8,86.5
		c-26.6-38.8-10.1-116.7-10-117.4l-8.7,6l-0.3-0.1l111.4-68c2,0.7,4.4-6.6,6.6-5.9c-1.2,4.8-10,47.8-11.4,87.9
		c-0.9,25.3,1,47.8,5.8,66.7c3.5,13.9,8.6,25.9,15.2,35.9L188.8,86.5z M106.8,3C87.4-6.3,79.3-12.8,76-16.2l36.1-44.5
		c3.6,4.6,16,17.7,46.8,31.9L106.8,3z M-95.5-56.3c-15.9,18.7-52,36.4-68.2,43.7l-122.7-63.6c11-4,33.4-12.7,56.1-24.2
		c39.3-20,62.2-39.6,68.2-58.1L-95.5-56.3z M-294.1-70.2c2.5,32.4-24.7,73-33.6,85.3l-86.6-14.5c11.4-17.5,43.3-70.9,39.7-112.5
		L-294.1-70.2z M-336.5,21.9c56.2,56.3,34.1,201.9,28.8,222.9l-77.4,45.1c3.3-11.8,7.9-55.5,12.3-110.5c3-37,1.6-69.6-4.1-96.9
		c-6.6-31.5-19-56-36.8-73L-336.5,21.9z M-195.2,189.5c34.4,10.3,77.7,56.2,85.2,64.3l-53.7,96.5c-8.8-10.1-24.8-27.6-44-45.4
		c-34.2-31.5-64-50.4-88.8-56.4L-195.2,189.5z M-98.7,253.8l25.5-45.9c30.3,1.2,71,25.3,81.2,22.3l3.2,47.3
		c-6.7,3.6-20.7-3.1-38-9.4C-46.4,261-73.9,253.2-98.7,253.8z M120.7,254.2c8.2-18.9,23.2-35.5,29.4-41.7l106.7,84.6
		c1,3.8,2.1,7.6,3.4,11.3c-3.4,0.9-17.7,4.9-32.3,13.4c-11.8,6.8-25.8,17.8-33.2,33.6L120.7,254.2z M151.6,201.9
		c-7.5-55.1,58.8-106.6,59.3-107.1l0,0l93.2,5.8c2.8,3.2-2.6-4.3,0.5-1.6c-2.9,3.7-14.4,39.9-30.4,75.1
		c-10.1,22.3-16.8,43.9-19.8,64.4c-2.3,15.6-2.4,30.6-0.4,44.7L151.6,201.9z M299.3,91.7c-41-61.6-2.8-192.8-2.5-194.1l-7.1,2.6
		l-0.7-0.2c-2-0.6-4.3,6.7-6.2,6.1l88.5-54c0.3,0.1,0.6,0.2,0.9,0.3c-1.6,6.3-12.4,51.2-14.3,103c-1.2,32.6,1.3,61.5,7.5,85.9
		c5.6,22,14.2,40.4,25.7,54.8L299.3,91.7z M159.8-29.4c-31.7-14.5-43.8-27.9-47.1-32.1l83.1-102.4c1.3-0.2-1.6-2.3-0.3-2.5
		c0.6,2.8,7.8,15.9,18.2,29.2c9.3,12,26.5,27.8,56.8,40.1L159.8-29.4z M101.4-62.7C55.2-61.1,16.1-73.1,1.7-76l1.3-106
		c11,3.2,30.6,8.5,55.3,12.9c31.4,5.7,74.3,14.7,121.2,10.4L101.4-62.7z M-163.2-160.4c-11.2,39.5-100.7,74.4-124.9,83.2l-80.9-41.9
		c12.4-5.7,40.1-18.9,68.2-36.2c50.3-30.9,78.1-59.6,82.9-85.1c0.6,0,1.5,0.1,2.6,0.2L-163.2-160.4z M-376.7-113
		c4.3,41.8-41,93.5-52.1,110.5l-134.9-21.9c14.4-19.5,66.9-95.7,58.7-155.1L-376.7-113z M-417.1,9.1
		c80.7,72.5,25.4,272.8,21.3,287.2l-123.3,71.9c5.6-26.2,16.5-84.8,19.3-149.6c2.2-51.3-1.1-96.4-9.8-134
		c-10-43.1-18.3-76.5-42.2-99.4L-417.1,9.1z M-304.5,253.1c51.2,11.6,119.8,75.4,140.1,98.7l-40.8,73.4
		c-10.3-11.1-32.9-34.6-60.7-58.4c-31.6-27-76-59.4-115.8-68.3L-304.5,253.1z M-156.8,358.4l57.6-103.8
		c43.6-1.2,96.5,23.9,110.5,30.9l14.2,108.7c-9.5-4.7-30.7-14.5-57.2-23.1c-33.2-10.7-81.8-21.6-124.9-12.6
		C-156.7,358.5-156.8,358.5-156.8,358.4z M195.8,356.8c15.7-35.2,65.1-47.2,65.7-47.3l0.8-0.2l-0.2-0.7c-1.2-3.3-2.2-6.6-3.1-9.9
		l75.7,60.1c0.8,2.6,1.6,5.2,2.5,7.8c-4.4,1.2-22.7,6.3-41.6,17.2c-16.4,9.5-36,25.1-44.8,48.2L195.8,356.8z M255.9,284.5
		C243,199.5,313.3,101,314.1,100l-2.6-2.1l-2.1,1.6c-3-2.5-0.6,4.1-3.2,1.2l93.1,4.4c1.9,1.9-1.3-3.7,0.7-2
		c-3.8,4.7-24.1,45.1-44.8,90.5c-13.1,28.7-21.6,56.5-25.5,82.9c-3.5,23.8-3.1,46.4,1.2,67.5L255.9,284.5z M393.8,96.1
		C331.7,20,374-146.2,374.5-148l0.2-0.8l-0.9-0.3c-0.2,0-0.3-0.1-0.5-0.1l129.7-79.2c-4.6,20.3-15.2,72.4-17.4,130.9
		c-1.6,44,1.8,83,10.1,115.9c9,35.3,23.7,63.7,43.8,84.4L393.8,96.1z M272-97.9c-63.3-25.4-68.8-76.3-68.8-76.7l-3.5-0.7l-2.8,4.9
		c-1.1,0.2,1-0.1,0,0l62.3-71.5c0.9,3.9,4.8,18.1,18,34.9c13,16.6,37.7,39,82.8,55.3L272-97.9z M183.4-163.8
		c-78.1,7.4-154.5-12.1-180.3-19.6l0.4-82.1c13.6,4,40,11.3,73.7,17.3c42.5,7.7,104.9,14.8,168.4,7.8L183.4-163.8z M-7-186.1
		c-47.4,25.7-122.7,23.7-146.8,22.3l-49.3-75.8c14.3,0.7,37.1,1.3,62.9,0.1c39.8-1.8,95-8.3,133.6-28.8L-7-186.1z M-404-240
		c66.1-44.8,103.7-84.6,111.8-118.4l72.4,103.2c-1.3-0.1,1.3,12.9,1.3,12.9l-1-0.1l-0.1,0.8c-9,53.5-124.2,109-151.3,121.4
		l-125.3-65C-479.2-194-441.9-214.3-404-240z M-689.2-45.3c7.5-11.1,22.4-34.1,36.4-62.3c17.9-36.2,37.7-88.3,31.2-132.2l113.6,58.8
		c9.6,59.7-45.2,138-58.6,156.1L-689.2-45.3z M-640.4,439c5.9-24.7,23-102.1,27.6-188.9c3.2-61.7-0.4-116.1-10.8-161.6
		c-12.5-54.7-35-96.8-66.8-125l125.2,20.9c98.7,89.9,54.8,329.1,42.7,385.8L-640.4,439z M-270.1,541.8
		c-10.4-10.6-42.2-42.5-82.9-74.7c-45.5-36.1-111.6-80-169.2-85.6c0.1-0.3,0.2-0.7,0.3-1.1l137.8-80.5
		c69.5,14.3,155.8,103.4,177.8,127.1L-270.1,541.8z M36.4,477.9c-11.4-5.7-39.5-19-75.2-30.5c-42.1-13.6-103.4-27.4-158.2-16.7
		l39.4-70.9l0.3,0.3l0.5-0.1c72.5-15.5,165.1,32.2,185.6,42.4L36.4,477.9z M253.1,444.8c-6.6-1-48.8-4.1-89.3-3.3
		c-38.6,0.8-89.1,7.4-117.5,33.5l-10.7-81.6c43.1-39.6,153.8-21.3,154.9-21.1l0.9,0.1l0.1-0.7c0.2-1.2,0.4-2.4,0.6-3.5l55.2,75.6
		C247.1,444.9,253.3,443.7,253.1,444.8z M401.4,480.9c-23.6,13.7-52.1,36.7-62.7,71.4l-86.6-118.4c17.6-49.2,85.8-65.7,86.6-65.9
		l0.1,0l0.1,0l0.8-0.3l-0.3-0.7c-0.7-2-1.4-3.9-2-5.9l119.5,94.8c0.2,0.6,0.4,1.3,0.6,1.9C451.6,459.2,426.9,466.2,401.4,480.9z
		 M675.4,118.1c-12.5,16.5-49.1,67.1-79.4,133.6c-21.7,47.7-36,94.1-42.4,137.9c-7.2,49.2-4.5,95.2,8.1,137l-105.8-83.9
		c-43.4-155.3,95.2-328.5,96.6-330.3l0.2-0.2L675.4,118.1z M549.2,112.2c-5.5,7-39.6,51.4-67.2,112c-17.6,38.7-29.2,76.3-34.4,111.9
		c-5.4,37.1-3.9,71.9,4.6,103.9l-118.7-94c-24.2-112.5,81.2-241.5,82.2-242.8l-8.3,0.5l-0.5-2.1c-1.7-1.4-3,5.2-4.6,3.7L549.2,112.2
		z M620.6-300c-6.2,28.4-17.6,88.4-20,155.2c-2,54.3,2.2,102.4,12.5,142.9c12.1,47.7,32.7,85,61.3,111.1l-122.2-5.6
		c-88.4-88-54.7-294.8-45.7-334L620.6-300z M376.7-316.6c18.7,23.9,55.3,56.7,124.1,78.9L362-152.9c-90.4-32.1-100.9-89.7-101-90.4
		l-0.1-0.8l92.9-114.4C356.4-350,362.7-334.4,376.7-316.6z M253.8-250.3c-104.2,16.7-218.9-7.8-250.3-17.1l0.7-129
		c17.2,5.2,54.3,15.7,102.5,24.3c59.8,10.8,148.8,20.9,238.2,9.2L253.8-250.3z"/>
	<path class="st4" d="M-700,323.2v4.1c53,41.2,102,100.7,138.5,151.5l5.3,1.3c-7.5-10.5-15.6-21.4-24.1-32.5
		C-611.7,406.8-653.8,358.5-700,323.2z M-638.3-299.2c27.3-32.2,60.4-79.6,66.6-125.8h-3.7c-10.7,77-96.9,158.7-120.8,180l-3.8-1.7
		v12.4c61.4,88.2,36.8,227.8,0,339.7v12.7c3.6-10.5,7.1-21.3,10.5-32.4c19.5-63.8,29.8-121.7,30.8-172
		c1.1-60.6-11.4-110.4-37.3-148.3l125.7,54.5c79.9,119.8-28.3,358.8-55.7,415l-73.9,21.6v10.3l67.8-19.9l-0.7,1.2l1.6,0.5
		c103.7,35.4,206.7,206.5,222.6,233.8l-25.9,27.8l11.9,3l24.2-25.9c83.1,4.9,167.4,48.2,228,87.6h5.1c-5.5-3.7-11.3-7.3-17.2-11
		c-53.8-33.5-133.7-73.6-213.6-79l93.3-100c104.5,4.5,212.3,92.6,233.5,110.8l-9.1,79.3h11.1l9.1-79.7
		c70.8-40.9,216.2,21.9,217.7,22.6l1.1,0.5l0.4-1c0.3-0.7,0.6-1.4,0.9-2.1L186,575h11.4l-29.2-71.6c31.2-46.9,107-46.5,107.8-46.5
		h0.1l0.1,0l0.9-0.1L277,456c-0.2-2.2-0.4-4.5-0.6-6.7L373.3,575h12.8l-7.1-9.2c-5-173.9,185.2-319.1,187.2-320.6l0.2-0.2L693.5,283
		c-17.4,14-68.9,57.5-117.9,119.2c-35.2,44.3-62.2,89.1-80.3,133.4c-5.4,13.2-10,26.4-13.9,39.5h4.1c45.2-151.4,185-269,212.2-290.8
		L800,314.9v-10L699.9,275c-93.8-134.9,19.5-384,50.1-445.6l50.1-14.2v-11.4l-43.7,13.2c0.5-0.9,0.8-1.4,0.8-1.5l0.7-1.2l-1.4-0.8
		c-89.4-53.8-127.5-112.2-143.8-154.3l-4.4-1.1c1.5,4,3.2,8.1,5,12.4c16.8,37.6,54.7,93.1,139.9,144.8c-0.4,0.8-1,1.9-1.8,3.4
		L606.7-136C495-204.6,484.6-282,483.8-301.9l71-53.4l-13.2-3.3L475.8-309c-147.3-16.2-283.3-86-336.1-116h-5.3
		c19.1,11,51.1,28.4,91.5,46.6c59.8,26.8,150.4,60.6,247,71.7L339-205.9c-114.5-14.9-218.1-71.7-248.5-89.7L123.4-425H112
		L80.6-301.3l-0.1,0c-70.4,18.3-176-9.6-214.4-21.2L-169.3-425h-11.2l34.2,98.6c-1.3-0.4-2.1-0.7-2.2-0.7l-1-0.4l-0.4,0.8
		c-23.3,53.7-158.4,81.8-190,87.7l-114.3-100.7c20.2-4.9,64.5-16.4,110.9-33.4c45.5-16.7,81.1-34,106.7-52h-5.3
		c-66.9,45.2-180.7,75-214.7,83.2l-94.5-83.2h-14.9l98.5,86.7c-5.5,65-83.2,132.7-102.1,148.2l-122.9-53.4
		C-681.8-253.1-660.2-273.3-638.3-299.2z M-563,82.1c15.7-53.2,24-101.2,24.7-142.9c0.8-47.7-8.4-87.1-27.5-117.3l143.9,62.4
		c65.6,96.9-44.5,292.3-52.5,306.2l-147.8,43.2C-609.6,207.8-582.8,149.2-563,82.1z M27.3-91.2L13.2-35.5
		C-13-37-36.4-51.4-36.7-51.6l-0.3-0.2l-0.2,0.3c-0.6,0.9-1.3,1.7-2.1,2.6l-20-58c0.9-1.1,1.7-2.2,2.4-3.4c2.3,1.3,13,6.9,27.7,11.7
		C-14.8-93.8,6.2-88.9,27.3-91.2z M-26.8,219.4L-12,89.3l52.8,129.5c-3.7-0.6-14.5-2.3-27.4-2.9C1.6,215.3-14,215.6-26.8,219.4z
		 M-6,54l-1.5,1.2l1.3,1.5l-1.6,0.5l2.9,7.1l-4.7-1.4l-1.6,4l-2.9,0.5l-1.4-1.1l0.6-0.2l-2.6-6.5l2.9-4.8l0.1,0.3L-6,54z M-1.5,65.2
		l130-40.8c-1.3,6.3-3.1,16-4.2,27c-1.5,15.4-1.8,36,4.1,52.7L-1.5,65.2z M-124.9,178.7C-125,178.7-125,178.7-124.9,178.7
		c-0.9-1.7-7.1-14.8-16.2-29.3c-8-12.7-19.7-28.8-32-37l151.5-44.4L-124.9,178.7z M128,113.6c-4.5,3.1-12.4,9-20.5,17.3
		c-10.4,10.8-23,27.7-26.1,49L0.8,75.5L128,113.6z M129.2,104.3c-9.5-26.6-3.2-64.4,0.1-80.2l71.1-22.3c0,0,0.1,0.1,0.1,0.1
		c-1,2.7-8.2,23.1-12.4,48.3c-3.5,21.2-5.4,49.6,2.9,72.6L129.2,104.3z M17.2,49.3l83.1-62.6c2.7,4.5,9.5,13.4,27.1,27.9L17.2,49.3z
		 M-21.3,58L-171,101.8c4.8-6.8,11.5-17,17.5-28.6c6.2-12.1,10.4-23.3,12.4-33.3c2.5-12.4,1.6-22.8-2.7-31.2
		c0.5-0.3,1.8-1.1,3.6-2.3L-21.3,58z M-131.6,0.1c7.9-6.3,17.1-15.4,20.2-24.9l75.5,66.5L-131.6,0.1z M-141,6.1
		c-2.1,1.4-3.5,2.2-3.5,2.3l-0.2,0.1l0.1,0.2c14.7,28.4-14.6,75-27.6,93.4l-65.3,19.1c6-9.2,17-27.1,26.1-47.8
		c7.8-17.6,12.7-33.8,14.7-48.1c2.5-17.7,0.3-32.6-6.3-44.2c0.3-0.2,0.9-0.7,1.8-1.3L-141,6.1z M-173.9,112.7
		c24.8,16.1,47.7,65.2,48.3,66.3l0.1,0.2l0.1,0l-37.9,40.6c-3-5.5-12.1-21.6-24.1-38.8c-12.2-17.5-29.9-39.4-47.9-50.3L-173.9,112.7
		z M-22.2,84l-15.7,136.5c-4.8-3.3-14.8-10.2-27.3-17.3c-13-7.5-30.8-16.6-48-21.7L-22.2,84z M-0.8,89.5l76.1,98.7
		c-6.7,4.3-18,12.2-26.8,22.1L-0.8,89.5z M82,180.8c4.9-35.6,36.5-59.8,46.9-66.9l67.3,20.2c-2.8,1.7-19.8,12.3-36.7,29.6
		c-10.8,11-19.4,22.6-25.7,34.3c-6.2,11.6-10,23.4-11.4,35.2L82,180.8z M192.3,123.2C174.6,75.7,201.4,2.8,201.7,2l0.1-0.3l-0.3-0.2
		l134.4-42.2c1.9,1.3,3.9,2.5,6,3.8c-2.5,4.8-20.4,39.1-32.4,80.8c-7.6,26.3-11.4,50.3-11.3,71.3c0.1,15.5,2.3,29.3,6.5,41.5
		L192.3,123.2z M128.2,14.4c-17.9-14.7-24.7-23.7-27.3-28.1L150.4-51c2.6,5.8,12.1,22.7,40.6,45.6L128.2,14.4z M3.4,46.9l20.9-82
		c0.3,0,0.7-0.1,1-0.1c1.4,0.4,24.6,6.8,65.3,16.4L3.4,46.9z M13-34.9L-7,44.3l-32-92.4c0.9-0.9,1.6-1.8,2.3-2.7
		c1.6,0.9,8.9,5.2,19.1,9.1C-9.7-38.7,1.3-35.5,13-34.9z M-17.8,44.8l-81.9-72.1c5.8-0.9,13.2-2.1,20.8-3.9
		c13.3-3.1,23.6-6.6,31-10.6L-17.8,44.8z M-112-25.4c-2.9,9.6-12.3,18.8-20.3,25.1l-60.5-26.3c11.2-9.2,27.9-25,32.5-41.4L-112-25.4
		z M-202.3-20.5c-1,0.8-1.7,1.2-1.7,1.2l-0.3,0.2l0.2,0.3c25.1,42.9-21.1,119.3-34.9,140.4L-366.4,159c6.1-11.6,24.2-47.4,37.4-89.3
		c9.4-29.9,14.5-57.1,15.1-80.7c0.7-25.4-3.9-46.8-13.5-63.6L-202.3-20.5z M-236.5,131c33.4,19.8,66.8,79.1,72.5,89.6l-81.3,87.1
		c-6.6-12.8-18.7-35.4-34.3-59c-27.6-41.9-53.9-69.5-78.3-82.1L-236.5,131z M-113.6,182c31.4,9.1,66,32.4,75.7,39.2l-7.2,63
		c-6.1-5.3-19.1-16-35.5-27c-18.7-12.6-45.4-27.9-71.6-33.8L-113.6,182z M-26.9,220.1c24.8-7.4,61.4-1.7,68-0.6L70,290.4
		c-0.1,0.1-0.1,0.3-0.2,0.4c-2.9-0.9-20.7-6.1-42-9.2c-18.7-2.7-43.5-4.2-62,2.5L-26.9,220.1z M48.8,211
		c8.7-9.9,20.1-17.9,26.9-22.2l42.7,55.4c-8,4.9-27.9,18.2-41.5,35.7L48.8,211z M123.3,234.3c6.5-59.6,73.2-99.3,73.9-99.8l0.2-0.1
		l112,33.5c2.1,4.1,4.4,8,7,11.6c-4,3.1-31.4,24.8-57.4,57.5c-16.4,20.7-29,41.6-37.5,62.2c-6.5,15.8-10.5,31.4-12.1,46.7
		L123.3,234.3z M306.7,157.4c-26.9-75.2,36.4-192.9,37.1-194.2l0.3-0.6l-0.6-0.4c-1.9-1.2-3.8-2.3-5.7-3.5l106.7-33.5
		c0.3,0.2,0.6,0.4,0.9,0.6c-3.3,6.2-26.3,50.4-41.8,104.1c-9.8,33.8-14.6,64.8-14.5,91.9c0.1,24.5,4.4,46,12.6,64.1L306.7,157.4z
		 M192.1-5.7c-29.4-23.4-38.6-40.6-40.9-45.8l113.6-85.5c1.4,0.2,2.8,0.3,4.2,0.5c-0.1,3.1,0.1,15.6,7.6,32.2
		c6.7,15,20.5,36,49,56.8L192.1-5.7z M91.2-19.2c-42-9.9-65.6-16.5-65.8-16.6l-0.1,0l-0.1,0c-0.3,0-0.5,0-0.8,0.1l13.5-53.1
		C52.4-82,90.4-65.4,138.7-55L91.2-19.2z M-48-42.5c-14.7,8-38.4,12.6-52.3,14.7L-150-71.6c8.6-1.6,21.7-4.2,35.4-8.1
		c21-5.9,36.7-12.5,46.9-19.7L-48-42.5z M-161.2-68.6c-4.4,16.5-21.4,32.5-32.7,41.7l-134.4-58.3c13-11,50.8-45.7,57.3-80
		L-161.2-68.6z M-329.8-75.8c44.2,73.6-27.9,214.8-38.9,235.4l-102.7,30c6.5-11.5,32.6-59,51.5-115.4
		c12.7-37.9,19.8-72.4,20.9-102.5c1.3-34.7-5.3-63.6-19.6-86L-329.8-75.8z M-360.1,167.2c50.6,25.4,98.3,112.1,113.5,141.7
		l-61.8,66.2c-7.9-14.2-25.4-44.8-48.3-77c-26.1-36.5-64.1-81.9-103.5-101.6L-360.1,167.2z M-240.3,317.8l87.4-93.7
		c45.9,10.1,94.8,50.1,107.7,61.2l-13.5,117.5c-8.7-7.4-28.3-23.2-53.9-39.1c-32-19.9-80-43.9-127.5-45.7
		C-240.2,318-240.3,317.9-240.3,317.8z M-34.3,285.1c37.5-13.9,103.5,6.4,104.2,6.7l0.4,0.1l0.1-0.3l51.1,125.3
		c-0.7,1.4-1.4,2.8-2,4.3c-5.1-2.2-33.2-13.7-66.3-21.3c-31.1-7.1-72.6-11.9-101,2.8L-34.3,285.1z M77.4,281.1
		C90.9,263.4,110.9,250,119,245l89.7,116.4c0,4.3,0.2,8.5,0.6,12.7c-3.8,0-19.8,0.5-37.3,5.6c-14.2,4.1-31.6,11.9-43.5,26.6
		L77.4,281.1z M211,348c8.6-92.4,106-166.8,107.1-167.6l0.5-0.4l-0.4-0.6c-2.5-3.4-4.7-7.1-6.7-10.8l96.4,28.9
		c1.5,2.5,3,4.8,4.7,7.1c-5.1,4-40.5,32-73.9,74c-21.1,26.6-37.4,53.6-48.3,80.1c-9.9,24.1-15.3,47.8-16.4,71L211,348z M404.4,186.6
		C359.3,90.8,446.9-72.2,447.8-74l0.4-0.7l-0.8-0.5c-0.2-0.1-0.3-0.2-0.5-0.3l156.4-49.1C593.3-104.5,568.6-52.7,551.1,8
		c-13.2,45.7-19.7,87.4-19.6,124c0.2,39.3,8.2,72.8,23.9,99.8L404.4,186.6z M327.4-48.3c-59.6-43-56.7-88.4-56.6-88.9l0.1-0.8
		L270-138c-1.1-0.1-2.3-0.2-3.4-0.4l85-64c-0.1,4.3,0.4,20.2,9.7,41.2c9.3,20.8,29.3,50.7,72.3,79.5L327.4-48.3z M139.7-55.7
		C90.9-66.2,52.5-83,38.2-89.8l29.6-116.5c10.7,6.2,29.9,16.8,54.5,27.9c31.5,14.1,77.7,31.6,127.9,39.3L139.7-55.7z M27.6-92.2
		c-41.7,4.8-84-18.8-84.4-19.1l-0.5-0.3l-0.2,0.4c-0.6,1-1.3,2.1-2.1,3.1l-40.9-118.3c10.2,3.2,28.2,8.3,49.5,12.5
		c30.3,5.9,73.6,11.1,109,2.3L27.6-92.2z M-68.1-100.4c-21.5,15.4-63.9,24.5-82.8,28L-262.8-171c12.6-1.3,38.3-4.6,65-10.8
		c46.3-10.7,75.4-25.2,86.6-43.1L-68.1-100.4z M-272.5-166.6c-5.9,34.6-44.9,70-57.4,80.6l-86.9-37.7
		c16.5-15.4,63.8-62.9,70.9-107.4L-272.5-166.6z M-406.7,480.4c-8.1-13.8-33.1-55.4-67.3-99.8c-38.2-49.6-96-112.9-154.8-133.7
		c0.2-0.3,0.4-0.7,0.6-1.1l165.3-48.4c69,33.1,136.2,148.8,153,179.4L-406.7,480.4z M-139.9,441.8c-40.5-25.2-101.1-55.6-161.3-58.7
		l59.7-64l0.2,0.4l0.6,0c80,2.7,162.9,69.2,181.7,85.2l-10.2,88.6C-79.6,484.5-105.6,463.2-139.9,441.8z M160.5,512.5
		c-0.5,1.1-1,2.1-1.4,3.2c-6.6-2.8-42.7-17.7-85.4-27.4C33.1,479-21.5,472.8-58,492.8l10.1-88.2c55.5-30.2,166.6,17.8,167.7,18.3
		l0.9,0.4l0.3-0.7c0.5-1.2,1-2.4,1.5-3.5L160.5,512.5z M274.7,455c-4.9,0.1-25.4,0.7-48,7.2c-19.6,5.7-44.2,16.9-59.5,38.8l-38-93
		c25.6-32.8,80.5-32.5,81.1-32.5l0.9,0l-0.1-0.8c-0.4-3.8-0.6-7.5-0.7-11.2l63.7,82.6C274.2,449.2,274.4,452.1,274.7,455z
		 M463.4,343.7c-28.5,35.9-50.4,72.3-65.2,108.2c-15.4,37.4-22.8,74.3-22.3,110l-99.8-129.4c4-124.1,137.2-225.8,138.6-226.9
		l0.7-0.5l-0.5-0.7c-1.5-2-2.8-4-4.1-6L563,243.9C555.5,249.8,508.2,287.4,463.4,343.7z M745-169c-13.9,28.1-41.4,88-61.4,157.3
		C667.4,44.6,659.3,96,659.5,141.2c0.2,53.1,12.1,97.5,35.2,132.3L559.4,233c-69.6-115.2,28.3-320.1,48-358.8L745-169z M481-299.7
		c0.6,9.5,3.1,27.5,13,49.8c13.3,29.9,43.2,73.8,109.4,114.9L436-82.4c-86.3-57.2-82.2-120.2-82.2-120.9l0.1-0.8L481-299.7z
		 M162.7-256.3c42.5,19.1,106,42.9,174.2,52l-85,64c-83.7-12.6-158.7-52.9-183.7-67.5L90-293.7C103.2-285.9,129-271.5,162.7-256.3z
		 M-67.2-303.7c42.1,8.5,101.7,16.1,147.3,4.6l-21.8,85.9c-56.3,14.6-134.6-7.1-159.5-14.9l-31.9-92.2
		C-118.3-315.8-94.6-309.2-67.2-303.7z M-257.2-257.5c60.7-19.3,97.3-42,109-67.5c0.6,0.2,1.5,0.5,2.6,0.9l33.7,97.2
		c-22,38.4-124.8,51.7-152.4,54.6l-73.7-65C-323.6-240-291.2-246.6-257.2-257.5z M-464.8-335.9l117,103
		c-6.3,44.8-55,93.3-71.1,108.3l-147.8-64.2C-546.6-205.5-471.7-271.6-464.8-335.9z"/>
</g>
<rect x="-450" y="-258.3" class="st3" width="1000" height="666.7"/>
</svg>
