<?xml version="1.0" encoding="utf-8"?>
<!-- Generator: Adobe Illustrator 15.0.2, SVG Export Plug-In  -->
<!DOCTYPE svg PUBLIC "-//W3C//DTD SVG 1.1//EN" "http://www.w3.org/Graphics/SVG/1.1/DTD/svg11.dtd" [
	<!ENTITY ns_flows "http://ns.adobe.com/Flows/1.0/">
]>
<svg version="1.1"
	 xmlns="http://www.w3.org/2000/svg" xmlns:xlink="http://www.w3.org/1999/xlink" xmlns:a="http://ns.adobe.com/AdobeSVGViewerExtensions/3.0/"
	 x="0px" y="0px" width="1500px" height="1000px" viewBox="0 -0.002 1500 1000" enable-background="new 0 -0.002 1500 1000"
	 xml:space="preserve">
<defs>
</defs>
<path opacity="0.78" fill="#FF7A1B" d="M704.24,25.976L704.376,0h-10.273l-0.107,22.793l-0.533,0.284
	C607.087,70.126,456.6,53.818,406.6,45.488L376.272,0h-11.796l34.482,50.351c-11.807,97.91-160.19,168.437-197.943,188.134
	l-113.28-58.74c20.288-11.113,67.578-37.949,115.624-71.757C259.545,68.447,299.018,32.314,321.459,0h-4.175
	C261.699,77.861,110.635,152.5,73.96,172.567L0,134.257v10.362l74.683,38.671l-0.025,0.02l0.157,0.947
	C86.528,256.659,24.39,353.943,7.247,379.09L0,377.879v8.984l3.697,0.615c135.014,113.339,46.455,444.436,35.542,489.25L0,898.765
	v10.679l60.884-35.572c76.855,8.99,166.483,72.794,229.461,126.123h5.078c-9.106-7.773-18.779-15.78-28.901-23.808
	C212.29,933.165,134.301,881.06,65.034,871.451l109.839-64.179l-0.313,1.274l1.542,0.132
	C277.314,817.306,408.177,948.15,428.622,969.2l-17.124,30.795h11.401l15.967-28.75c76.899-14.385,163.759,6.51,227.352,28.75h7.701
	c-7.588-2.739-15.527-5.474-23.77-8.14c-55.874-18.056-136.737-36.322-209.794-23.3l61.533-110.815
	c94.975-19.281,211.718,35.811,234.799,47.388l12.358,94.867h10.335l-12.78-97.68c54.543-52.593,211.271-23.756,212.774-23.501
	l-6.249-4.858l-4.474-0.796c0.098-0.694,0.215-1.377,0.322-2.057l86.806,118.854c-0.068,0.439-0.156,0.868-0.224,1.313
	c-8.897-1.406-57.208-8.569-111.973-7.5c-35.508,0.688-66.748,4.653-92.86,11.777c-5,1.362-9.796,2.852-14.414,4.448h8.174
	c87.627-26.737,210.389-6.435,211.99-6.162l1.485,0.255l0.126-0.973l5.03,6.88h12.158l-14.531-19.882
	c19.813-71.416,117.859-95.259,118.905-95.504l1.386-0.326l-0.136-0.362l102.499,81.284c-10.185,2.823-38.115,11.431-66.826,28.037
	c-3.583,2.076-7.255,4.326-10.966,6.753h6.064c32.899-20.547,66.122-30.229,74.618-32.5l40.986,32.5h15.284l-56.3-44.604
	c-57.021-178.929,116.854-378.953,141.024-410.603l92.714,4.233v-8.868l-120.701-5.654
	c-114.555-100.34-61.245-355.583-47.523-417.829L1500,21.875V7.295l-172.031,100.976c0.227-0.917-0.029,0.117,0,0l6.925,0.059
	l0.517-2.598C1243.019,77.373,1187.043,34.199,1163,0h-4.239c2.227,3.252,4.649,6.583,7.306,9.981
	c23.515,30.068,70.028,71.552,158.232,98.905c-0.196,0.801-0.489,1.963-0.841,3.477l-119.961,73.271
	c-115.771-36.738-142.46-104.023-147.577-121.728L1107.795,0h-12.568l-48.154,59.385C896.273,79.756,743.283,37.841,704.24,25.976z
	 M513.274,64.736c53.828-2.432,128.701-11.21,180.708-39.141L693.4,147.568l0,0c-61.108,45.83-164.892,30.283-202.079,28.476
	L417.903,64.003C435.052,65.058,471.146,66.64,513.274,64.736z M825.604,791.54c-29.541,0.575-67.964,5.562-90.217,25.131
	l-14.238-108.832c30.635-20.908,94.562-17.373,95.247-17.329l0.429,0.024l0.069-0.273l73.954,101.265
	c-0.322,1.41-0.595,2.856-0.811,4.331C884.921,795.044,857.118,790.924,825.604,791.54z M594.416,262.821
	c28.584-1.426,68.716-6.465,98.555-22.314l-0.542,114.11c-36.401,13.643-79.761,1.856-80.209,1.729l-0.503-0.136l-0.132,0.439
	c-0.312,1.074-0.732,2.158-1.235,3.242l-63.237-97.235C557.005,263.221,574.318,263.817,594.416,262.821z M776.239,690.768
	c-17.412,1.754-40.046,5.985-55.222,16.093l-7.744-59.174c20.605-12.217,54.851-15.308,61.003-15.776l41.885,57.345
	c-0.04,0.132-0.078,0.258-0.117,0.39C813.221,689.504,796.073,688.772,776.239,690.768z M692.423,355.525l-0.249,53.311
	c-23.921,4.56-48.168-3.203-48.446-3.291l-0.352-0.117l-0.108,0.312c-0.332,0.918-0.767,1.846-1.294,2.773l-31.006-47.675
	c0.586-1.201-7.515-7.236-7.148-8.408c2.383,0.625,21.821,8.125,36.172,9.199C653.938,362.664,673.933,362.352,692.423,355.525z
	 M800.688,363.211l-34.708,42.792c-40.026,0.469-62.682-0.156-62.921-0.166h-0.078l-0.073,0.019
	c-0.224,0.088-0.454,0.166-0.684,0.245l0.269-50.792C717.013,358.221,754.957,364.647,800.688,363.211z M615.515,633.043L590.52,678
	c-3.955-4.286-15.659-16.685-30.396-29.507c-14.907-12.974-35.703-28.726-54.335-34.556l51.226-29.931
	c25.888,8.906,57.534,47.963,58.271,48.882l0.092,0.165L615.515,633.043z M765.502,406.609l-63.698,78.544l0.415-78.407
	c0.298-0.108,0.596-0.205,0.894-0.313C704.464,406.473,726.789,407.059,765.502,406.609z M694.948,493.606l-1.109,1.362l1.534,1.045
	l-1.294,0.791l4.189,5.786l-4.502-0.21l-0.576,3.95l-2.466,1.118l-1.474-0.703l0.527-0.309l-3.755-5.244l1.567-4.989l0.176,0.269
	L694.948,493.606z M701.505,502.742l0.229-3.091l107.575-62.69c0.216,5.986,0.782,15.088,2.276,25.185
	c2.1,14.15,6.454,32.798,15.434,46.475L701.505,502.742z M665.275,489.187l-95.371-15.957c5.664-7.46,11.938-17.676,12.568-26.923
	L665.275,489.187z M592.517,441.482c5.015-2.08,11.367-4.883,17.871-8.184c11.255-5.703,19.755-11.221,25.498-16.504l46.382,71.23
	L592.517,441.482z M581.804,445.955c-0.502,9.297-6.904,19.658-12.627,27.158l-60.258-10.088
	c8.027-10.723,19.517-28.74,19.991-44.462L581.804,445.955z M562.8,480.77c-1.587,1.758-2.622,2.783-2.666,2.832l-0.181,0.176
	l0.166,0.195c19.619,22.275,3.687,70.727-3.906,90.17l-54.463,31.787c3.32-9.565,9.199-28.13,12.797-48.822
	c3.062-17.584,3.896-33.238,2.485-46.523c-1.753-16.494-7.002-29.375-15.59-38.301c0.249-0.283,0.708-0.8,1.328-1.523L562.8,480.77z
	 M566.506,543.947c2.89-12.29,4.135-23.285,3.701-32.689c-0.542-11.665-3.697-20.898-9.37-27.451
	c0.376-0.371,1.367-1.396,2.725-2.91l118.53,19.78l-124.907,72.9C559.968,566.414,563.738,555.701,566.506,543.947z
	 M810.004,436.541l58.974-35.986c0.05,0.02,0.098,0.04,0.146,0.059c-0.272,2.627-2.227,22.607-0.36,46.23
	c1.571,19.843,6.2,45.781,18.861,64.619l-59.804-2.803C813.314,486.863,810.521,451.414,810.004,436.541z M714.738,484.187
	l60.783-74.882c3.407,3.486,11.572,9.932,30.624,19.043L714.738,484.187z M692.35,488.542l0.01,3.814l-49.979-83.228
	c0.581-0.986-4.898-5.732-4.532-6.699c1.617,0.498,15.117,6.484,25.215,7.685c7.812,0.918,18.384,1.358,29.106-0.674L692.35,488.542
	z M635.52,416.229c-11.431,10.537-31.694,19.893-43.72,24.882l-54.453-28.232c7.377-3.34,18.554-8.672,30.004-15.176
	c17.612-10,30.229-19.433,37.739-28.193L635.52,416.229z M527.937,418.054c-0.239,15.782-11.992,34.072-20.059,44.795
	l-133.954-22.412c9.189-12.803,35.493-52.499,33.613-84.746L527.937,418.054z M501.697,470.574c-11.069-2.178-2.7-4.99-2.739-4.951
	l-4.858,1.386l-3.472,0.694c32.182,32.924,17.524,116.904,9.814,138.988l-106.181,61.973c2.911-11.763,11.202-48.036,13.677-88.721
	c1.768-29.023,0.273-54.574-4.449-75.941c-5.078-23.008-13.945-41.182-26.382-54.219L501.697,470.574z M594.758,609.7
	c-10.015-9.653-24.121-21.475-37.066-26.089l126.348-73.818l-68.183,122.636c-0.029,0.006-0.063,0.006-0.093,0.006
	C614.7,631.125,606.145,620.671,594.758,609.7z M627.077,632.288l63.55-115.972l16.665,133.334
	c-5.039-1.943-19.37-4.97-32.168-8.638C661.76,637.18,643.688,632.965,627.077,632.288z M697.443,526.711l76.423,104.633
	c-3.507,0.273-13.594,1.196-25.251,3.525c-10.796,2.158-24.761,5.923-35.425,12.158L697.443,526.711z M707.555,524.425l90.51,71.777
	c-5.078,5.342-13.497,15.024-19.151,25.825L707.555,524.425z M779.354,622.628c5.616-10.859,14.103-20.64,19.219-26.021
	l50.812,40.294c-6.094,6.229-20.987,22.592-29.308,41.426L779.354,622.628z M802.46,587.98c-3.565-33.1,20.01-64.73,27.744-73.398
	l64.579,3.644c-2.168,2.192-15.146,17.709-26.455,36.963c-7.246,12.333-12.44,24.644-15.439,36.582
	c-2.969,11.821-3.769,23.3-2.412,34.248L802.46,587.98z M814.246,537.454c-6.962,12.016-14.473,30.082-12.539,49.926l-95.812-75.903
	l-2.769-4.189l125.515,7.295C825.302,518.332,819.637,528.132,814.246,537.454z M888.788,511.516
	c-26.549-38.794-10.055-116.645-9.967-117.417l-8.651,6.006l-0.284-0.107l111.426-67.988c2.03,0.693,4.433-6.601,6.563-5.947
	c-1.211,4.844-9.952,47.754-11.426,87.939c-0.938,25.342,1.025,47.773,5.82,66.699c3.525,13.887,8.608,25.879,15.171,35.908
	L888.788,511.516z M806.771,427.967c-19.365-9.239-27.51-15.801-30.811-19.189l36.143-44.531
	c3.643,4.609,15.956,17.734,46.758,31.904L806.771,427.967z M604.543,368.67c-15.908,18.691-51.982,36.367-68.188,43.691
	l-122.738-63.643c11.04-4.023,33.398-12.666,56.074-24.218c39.267-20.03,62.163-39.561,68.231-58.145L604.543,368.67z
	 M405.887,354.842c2.471,32.383-24.737,72.988-33.638,85.322l-86.552-14.482c11.372-17.53,43.276-70.859,39.736-112.509
	L405.887,354.842z M363.544,446.873c56.205,56.298,34.067,201.903,28.793,222.915l-77.407,45.141
	c3.281-11.768,7.872-55.518,12.266-110.483c2.959-36.977,1.572-69.56-4.116-96.85c-6.572-31.533-18.959-56.025-36.836-72.968
	L363.544,446.873z M504.798,614.513c34.424,10.333,77.738,56.177,85.249,64.342l-53.677,96.542
	c-8.779-10.068-24.76-27.642-44.013-45.366c-34.229-31.514-64.038-50.41-88.818-56.353L504.798,614.513z M601.271,678.752
	l25.483-45.89c30.308,1.168,71.01,25.342,81.23,22.344l3.212,47.348c-6.684,3.585-20.747-3.144-37.983-9.408
	C653.562,686.003,626.135,678.2,601.271,678.752z M820.731,679.221c8.192-18.926,23.232-35.455,29.374-41.748l106.699,84.613
	c0.978,3.828,2.109,7.593,3.418,11.279c-3.428,0.898-17.656,4.912-32.305,13.389c-11.825,6.841-25.791,17.748-33.212,33.633
	L820.731,679.221z M851.59,626.897c-7.461-55.084,58.799-106.577,59.347-107.109l0,0l93.221,5.791
	c2.774,3.237-2.646-4.302,0.527-1.622c-2.909,3.678-14.355,39.879-30.39,75.079c-10.146,22.26-16.806,43.91-19.805,64.359
	c-2.295,15.625-2.421,30.566-0.429,44.678L851.59,626.897z M999.323,516.697c-40.98-61.601-2.798-192.802-2.446-194.129
	l-7.138,2.626l-0.664-0.205c-2.013-0.615-4.307,6.719-6.221,6.074l88.495-53.994c0.313,0.097,0.625,0.205,0.947,0.302
	c-1.563,6.27-12.373,51.24-14.277,102.958c-1.201,32.626,1.318,61.523,7.5,85.879c5.587,22.031,14.204,40.356,25.697,54.794
	L999.323,516.697z M859.759,395.604c-31.688-14.492-43.799-27.871-47.051-32.099l83.086-102.353c1.3-0.166-1.601-2.285-0.312-2.471
	c0.624,2.813,7.812,15.918,18.202,29.2c9.346,11.953,26.494,27.773,56.807,40.087L859.759,395.604z M801.391,362.342
	c-46.192,1.543-85.286-10.488-99.651-13.379l1.348-105.957c11.011,3.223,30.64,8.458,55.275,12.901
	c31.446,5.664,74.268,14.667,121.153,10.419L801.391,362.342z M536.79,264.618c-11.202,39.472-100.654,74.423-124.863,83.231
	l-80.858-41.933c12.412-5.673,40.097-18.906,68.242-36.24c50.254-30.928,78.125-59.561,82.9-85.127
	c0.591,0.04,1.46,0.107,2.563,0.186L536.79,264.618z M323.261,312.04c4.321,41.757-40.977,93.506-52.08,110.526l-134.906-21.884
	c14.365-19.522,66.898-95.713,58.72-155.068L323.261,312.04z M282.855,434.061c80.678,72.504,25.395,272.83,21.289,287.2
	l-123.281,71.949c5.557-26.231,16.538-84.849,19.327-149.653c2.207-51.313-1.079-96.41-9.771-134.043
	c-9.956-43.099-18.281-76.527-42.153-99.447L282.855,434.061z M395.487,678.123c51.215,11.552,119.779,75.375,140.102,98.681
	l-40.791,73.368c-10.253-11.064-32.876-34.608-60.703-58.402c-31.631-27.041-76-59.355-115.834-68.268L395.487,678.123z
	 M543.177,783.38l57.626-103.778c43.589-1.183,96.494,23.866,110.532,30.95l14.17,108.735c-9.483-4.673-30.684-14.517-57.227-23.095
	c-33.228-10.737-81.811-21.606-124.917-12.593C543.309,783.537,543.24,783.454,543.177,783.38z M895.75,781.823
	c15.703-35.206,65.117-47.203,65.684-47.335l0.791-0.19l-0.244-0.668c-1.191-3.287-2.206-6.587-3.105-9.902l75.731,60.053
	c0.791,2.618,1.611,5.215,2.53,7.778c-4.424,1.153-22.734,6.324-41.602,17.232c-16.406,9.491-36.006,25.063-44.834,48.177
	L895.75,781.823z M955.907,709.538c-12.92-85.068,57.361-183.568,58.152-184.54l-2.607-2.085l-2.08,1.563
	c-3.047-2.529-0.575,4.146-3.164,1.201l93.124,4.404c1.886,1.875-1.348-3.657,0.665-1.958c-3.75,4.741-24.101,45.146-44.755,90.463
	c-13.058,28.662-21.632,56.549-25.499,82.876c-3.496,23.838-3.086,46.436,1.162,67.49L955.907,709.538z M1093.786,521.121
	c-62.075-76.123-19.75-242.343-19.292-244.12l0.205-0.752l-0.859-0.264c-0.155-0.049-0.313-0.098-0.469-0.146l129.736-79.17
	c-4.609,20.303-15.215,72.422-17.373,130.947c-1.621,44.033,1.787,83.026,10.127,115.908c8.965,35.342,23.687,63.657,43.843,84.433
	L1093.786,521.121z M971.966,327.059c-63.262-25.371-68.77-76.26-68.837-76.708l-3.478-0.694l-2.773,4.854
	c-1.055,0.156,1.045-0.137,0,0l62.344-71.484c0.89,3.896,4.824,18.076,17.988,34.912c12.998,16.621,37.714,39.033,82.841,55.322
	L971.966,327.059z M883.431,261.181c-78.144,7.402-154.542-12.09-180.333-19.629l0.435-82.139
	c13.569,4.043,39.985,11.27,73.679,17.344c42.47,7.657,104.901,14.844,168.349,7.813L883.431,261.181z M692.975,238.896
	c-47.426,25.703-122.665,23.73-146.795,22.324l-49.287-75.771c14.287,0.684,37.07,1.289,62.915,0.117
	c39.765-1.787,95.039-8.271,133.554-28.828L692.975,238.896z M296.005,185.019c66.127-44.765,103.705-84.57,111.84-118.417
	l72.363,103.193c-1.28-0.098,1.342,12.929,1.25,12.92l-0.991-0.088l-0.137,0.839c-8.975,53.545-124.223,109.033-151.317,121.386
	L203.7,239.872C220.766,230.956,258.085,210.693,296.005,185.019z M10.821,379.695c7.524-11.064,22.441-34.121,36.372-62.265
	c17.91-36.171,37.734-88.311,31.211-132.207l113.573,58.828c9.584,59.658-45.151,137.958-58.632,156.142L10.821,379.695z
	 M59.634,863.965c5.938-24.741,23.042-102.06,27.607-188.852c3.242-61.719-0.396-116.088-10.815-161.601
	C63.892,458.768,41.44,416.746,9.664,388.475l125.224,20.889c98.677,89.921,54.814,329.085,42.72,385.75L59.634,863.965z
	 M429.94,966.827c-10.352-10.631-42.188-42.456-82.875-74.732c-45.493-36.088-111.582-80.038-169.16-85.613
	c0.079-0.322,0.167-0.699,0.269-1.133l137.841-80.537c69.463,14.316,155.795,103.394,177.792,127.138L429.94,966.827z
	 M736.398,902.94c-11.357-5.66-39.531-18.961-75.185-30.483c-42.109-13.608-103.364-27.363-158.208-16.734l39.385-70.921
	l0.278,0.341l0.542-0.111c72.519-15.454,165.097,32.231,185.609,42.397L736.398,902.94z M953.124,869.785
	c-6.592-1.04-48.761-4.116-89.337-3.325c-38.622,0.753-89.063,7.35-117.492,33.536l-10.679-81.576
	c43.122-39.585,153.787-21.284,154.938-21.09l0.859,0.146l0.099-0.736c0.155-1.187,0.36-2.349,0.595-3.497l55.195,75.571
	C947.098,869.873,953.279,868.707,953.124,869.785z M1101.403,905.928c-23.623,13.667-52.138,36.665-62.705,71.401l-86.57-118.408
	c17.597-49.159,85.809-65.746,86.562-65.922l0.077-0.021l0.078-0.033l0.82-0.322l-0.272-0.732c-0.703-1.963-1.368-3.931-1.992-5.903
	l119.511,94.769c0.215,0.636,0.41,1.274,0.634,1.904C1151.589,884.219,1126.862,891.197,1101.403,905.928z M1375.347,543.132
	c-12.528,16.484-49.13,67.118-79.413,133.584c-21.729,47.693-36.006,94.096-42.431,137.913c-7.207,49.164-4.493,95.181,8.057,137.04
	l-105.85-83.852c-43.438-155.347,95.156-328.489,96.61-330.276l0.176-0.22L1375.347,543.132z M1249.244,537.165
	c-5.488,6.973-39.609,51.368-67.245,112.031c-17.628,38.687-29.209,76.323-34.424,111.86c-5.43,37.075-3.877,71.924,4.55,103.92
	l-118.72-94.043c-24.159-112.489,81.172-241.521,82.216-242.811l-8.339,0.522l-0.518-2.085c-1.738-1.45-2.969,5.21-4.6,3.652
	L1249.244,537.165z M1320.578,124.99c-6.192,28.408-17.578,88.437-20.039,155.243c-1.992,54.287,2.206,102.373,12.489,142.909
	c12.091,47.685,32.699,85.019,61.293,111.122l-122.245-5.619c-88.402-88.022-54.711-294.759-45.658-333.998L1320.578,124.99z
	 M1076.662,108.427c18.691,23.896,55.332,56.68,124.121,78.867l-138.779,84.766c-90.439-32.148-100.867-89.746-100.966-90.352
	l-0.127-0.771l92.89-114.433C1056.438,74.951,1062.717,90.576,1076.662,108.427z M953.821,174.658
	c-104.17,16.66-218.922-7.774-250.28-17.12l0.684-129.022c17.212,5.224,54.348,15.654,102.488,24.326
	c59.774,10.772,148.828,20.859,238.191,9.219L953.821,174.658z"/>
<path opacity="0.23" fill="#FF7A1B" d="M0,748.234v4.066c52.998,41.162,101.982,100.741,138.549,151.483l5.313,1.324
	c-7.51-10.513-15.552-21.411-24.058-32.452C88.34,831.812,46.153,783.493,0,748.234z M61.719,125.84
	C89.014,93.662,122.095,46.26,128.306,0h-3.715C113.882,77.031,27.676,158.71,3.838,179.99L0,178.329v12.432
	c61.377,88.193,36.792,227.753,0,339.662v12.689c3.618-10.541,7.139-21.347,10.503-32.357
	c19.468-63.774,29.82-121.645,30.762-172.006c1.133-60.586-11.435-110.429-37.339-148.31l125.664,54.492
	c79.896,119.833-28.305,358.816-55.723,414.988L0,681.521v10.292l67.837-19.872l-0.664,1.249l1.582,0.542
	c103.72,35.391,206.659,206.459,222.582,233.816l-25.947,27.788l11.938,2.97l24.199-25.947
	c83.09,4.897,167.362,48.228,227.977,87.636h5.098c-5.542-3.651-11.289-7.343-17.227-11.034
	c-53.798-33.457-133.706-73.638-213.583-79.028l93.28-99.994c104.458,4.541,212.338,92.621,233.486,110.756l-9.097,79.301h11.113
	l9.097-79.662c70.8-40.865,216.158,21.909,217.662,22.568l1.095,0.483l0.381-0.962c0.282-0.703,0.575-1.388,0.868-2.07
	l24.316,59.643h11.378l-29.22-71.576c31.221-46.886,106.963-46.49,107.792-46.479h0.099l0.088-0.011l0.938-0.132l-0.088-0.829
	c-0.234-2.241-0.41-4.474-0.557-6.704l96.884,125.731h12.803l-7.129-9.247c-5.019-173.95,185.175-319.14,187.157-320.634
	l0.244-0.186l127.108,38.075c-17.412,14-68.914,57.48-117.928,119.18c-35.177,44.277-62.208,89.14-80.343,133.345
	c-5.42,13.213-10.038,26.376-13.866,39.467h4.052c45.176-151.381,185.01-269.022,212.187-290.765l102.401,30.674v-9.966
	l-100.126-29.941c-93.807-134.883,19.497-383.982,50.074-445.583L1500,240.175v-11.426l-43.691,13.173
	c0.479-0.908,0.762-1.436,0.82-1.542l0.665-1.241l-1.368-0.82c-89.355-53.75-127.549-112.186-143.816-154.256l-4.444-1.104
	c1.494,3.975,3.155,8.096,5.049,12.354c16.798,37.597,54.697,93.144,139.911,144.755c-0.41,0.781-1.015,1.934-1.787,3.418
	l-144.676,45.479c-111.641-68.613-122.062-146.005-122.813-165.878l70.957-53.399l-13.154-3.281l-65.889,49.639
	C1028.43,99.843,892.465,30.039,839.623,0h-5.294c19.072,11.016,51.055,28.447,91.494,46.601
	c59.774,26.846,150.381,60.596,246.981,71.68l-133.77,100.771c-114.54-14.854-218.095-71.748-248.494-89.707L823.441,0h-11.407
	l-31.396,123.701l-0.078,0.019c-70.363,18.34-175.958-9.609-214.42-21.191L530.691,0h-11.215l34.155,98.603
	c-1.313-0.43-2.07-0.683-2.168-0.723l-1.011-0.352l-0.366,0.85c-23.335,53.721-158.447,81.796-190.033,87.676L245.776,85.39
	c20.19-4.893,64.54-16.396,110.927-33.398C402.186,35.322,437.811,17.95,463.367,0h-5.313
	c-66.943,45.244-180.711,75.019-214.73,83.232L148.833,0h-14.946l98.53,86.708c-5.503,64.961-83.203,132.686-102.05,148.212
	L7.422,181.552C18.179,171.933,39.8,151.679,61.719,125.84z M136.978,507.126c15.674-53.154,23.975-101.22,24.672-142.89
	c0.801-47.705-8.447-87.109-27.47-117.324l143.9,62.402c65.586,96.923-44.458,292.259-52.5,306.233L77.769,658.776
	C90.42,632.76,117.183,574.245,136.978,507.126z M727.34,333.748l-14.146,55.743c-26.23-1.446-49.594-15.889-49.863-16.055
	l-0.337-0.215l-0.195,0.293c-0.586,0.889-1.285,1.739-2.076,2.568l-20.049-57.978c0.928-1.113,1.743-2.227,2.432-3.359
	c2.334,1.269,13.003,6.875,27.749,11.728C685.187,331.2,706.203,336.083,727.34,333.748z M673.175,644.347L688.02,514.28
	l52.764,129.452c-3.741-0.63-14.542-2.289-27.354-2.886C701.559,640.294,685.963,640.597,673.175,644.347z M694.025,478.962
	l-1.514,1.152l1.333,1.484l-1.562,0.489l2.88,7.148l-4.658-1.387l-1.635,3.984l-2.871,0.532l-1.358-1.118l0.635-0.186l-2.568-6.475
	l2.939-4.814l0.117,0.332L694.025,478.962z M698.512,490.242l129.998-40.8c-1.338,6.328-3.116,16.006-4.171,26.963
	c-1.494,15.366-1.781,36.02,4.049,52.68L698.512,490.242z M575.071,603.717c-0.035-0.005-0.068-0.009-0.098-0.02
	c-0.776-1.65-7.012-14.819-16.074-29.268c-7.973-12.715-19.658-28.77-32.017-36.973l151.508-44.383L575.071,603.717z
	 M827.997,538.621c-4.464,3.062-12.412,8.97-20.489,17.323c-10.409,10.771-22.978,27.729-26.133,49.01l-80.543-104.419
	L827.997,538.621z M829.228,529.333c-9.521-26.602-3.208-64.443,0.121-80.156l71.114-22.314c0.048,0.039,0.088,0.068,0.136,0.107
	c-0.967,2.676-8.222,23.086-12.411,48.3c-3.526,21.191-5.435,49.546,2.924,72.568L829.228,529.333z M717.204,474.255l83.132-62.559
	c2.666,4.532,9.53,13.399,27.1,27.911L717.204,474.255z M678.723,483.025l-149.755,43.798c4.78-6.777,11.514-17.012,17.47-28.593
	c6.231-12.12,10.4-23.301,12.388-33.262c2.476-12.354,1.577-22.842-2.656-31.182c0.488-0.293,1.792-1.103,3.608-2.333
	L678.723,483.025z M568.415,425.076c7.876-6.338,17.1-15.401,20.171-24.921l75.522,66.464L568.415,425.076z M559.011,431.121
	c-2.119,1.417-3.466,2.227-3.525,2.266l-0.239,0.146l0.126,0.244c14.736,28.427-14.561,75.009-27.573,93.388l-65.297,19.096
	c5.967-9.155,16.958-27.06,26.113-47.787c7.783-17.607,12.734-33.779,14.717-48.056c2.456-17.725,0.317-32.578-6.348-44.16
	c0.332-0.234,0.947-0.654,1.787-1.26L559.011,431.121z M526.067,537.698c24.79,16.069,47.749,65.199,48.286,66.352l0.053,0.201
	l0.142,0.023l-37.875,40.562c-3.023-5.522-12.051-21.548-24.136-38.813c-12.231-17.461-29.896-39.375-47.895-50.328L526.067,537.698
	z M677.795,508.997l-15.659,136.475c-4.766-3.34-14.81-10.157-27.251-17.329c-12.993-7.491-30.82-16.611-48.032-21.65
	L677.795,508.997z M699.201,514.519l76.072,98.72c-6.709,4.272-18.038,12.217-26.775,22.052L699.201,514.519z M782.011,605.774
	c4.883-35.587,36.504-59.824,46.865-66.89l67.295,20.156c-2.842,1.729-19.796,12.343-36.661,29.555
	c-10.791,11.026-19.433,22.559-25.683,34.277c-6.192,11.602-10.01,23.419-11.445,35.234L782.011,605.774z M892.313,548.201
	c-17.704-47.534,9.117-120.4,9.41-121.191l0.106-0.293l-0.264-0.205l134.364-42.168c1.934,1.26,3.917,2.51,5.977,3.76
	c-2.52,4.756-20.42,39.141-32.432,80.83c-7.567,26.279-11.371,50.283-11.273,71.342c0.078,15.463,2.275,29.34,6.533,41.548
	L892.313,548.201z M828.188,439.373c-17.861-14.727-24.679-23.711-27.257-28.125l49.443-37.207
	c2.607,5.771,12.08,22.725,40.645,45.576L828.188,439.373z M703.405,471.902l20.855-81.982c0.337-0.039,0.674-0.059,1.015-0.098
	c1.406,0.391,24.624,6.826,65.266,16.436L703.405,471.902z M713.034,390.135l-20.083,79.15l-31.967-92.441
	c0.869-0.888,1.63-1.787,2.265-2.695c1.558,0.938,8.877,5.215,19.14,9.102C690.324,386.248,701.281,389.461,713.034,390.135z
	 M682.204,469.822l-81.85-72.099c5.795-0.87,13.174-2.149,20.845-3.907c13.266-3.057,23.603-6.611,30.991-10.645L682.204,469.822z
	 M587.976,399.617c-2.944,9.6-12.349,18.779-20.293,25.146l-60.463-26.249c11.202-9.151,27.92-25.01,32.515-41.358L587.976,399.617z
	 M497.698,404.529c-1.044,0.752-1.66,1.163-1.708,1.192l-0.327,0.224l0.2,0.333c25.122,42.851-21.103,119.325-34.927,140.443
	l-127.309,37.23c6.113-11.562,24.238-47.382,37.421-89.33c9.414-29.927,14.497-57.065,15.122-80.659
	c0.669-25.41-3.877-46.758-13.506-63.642L497.698,404.529z M463.455,556.042c33.354,19.779,66.762,79.058,72.5,89.561
	l-81.337,87.098c-6.568-12.821-18.726-35.385-34.268-58.954c-27.631-41.909-53.92-69.452-78.315-82.134L463.455,556.042z
	 M586.365,607.008c31.43,9.122,66.01,32.417,75.688,39.21l-7.232,63.016c-6.127-5.259-19.097-15.961-35.512-27.006
	c-18.716-12.602-45.401-27.909-71.572-33.809L586.365,607.008z M673.093,645.061c24.75-7.423,61.411-1.743,67.973-0.63
	l28.913,70.946c-0.067,0.126-0.146,0.249-0.214,0.375c-2.921-0.883-20.681-6.112-41.97-9.188c-18.687-2.7-43.486-4.165-62.006,2.471
	L673.093,645.061z M748.805,636.038c8.704-9.908,20.139-17.936,26.897-22.242l42.704,55.415
	c-8.007,4.942-27.861,18.199-41.474,35.746L748.805,636.038z M823.31,659.314c6.543-59.61,73.222-99.351,73.925-99.761l0.215-0.127
	l111.981,33.539c2.062,4.111,4.386,8.004,7.012,11.637c-4.003,3.095-31.445,24.818-57.4,57.495
	c-16.417,20.663-29.033,41.6-37.5,62.225c-6.466,15.762-10.499,31.368-12.081,46.666L823.31,659.314z M1006.688,582.41
	c-26.865-75.166,36.382-192.86,37.085-194.16l0.312-0.576l-0.634-0.391c-1.944-1.162-3.829-2.344-5.665-3.516l106.708-33.496
	c0.313,0.196,0.606,0.381,0.919,0.566c-3.271,6.163-26.299,50.43-41.759,104.082c-9.756,33.848-14.643,64.75-14.517,91.865
	c0.108,24.516,4.376,45.956,12.638,64.062L1006.688,582.41z M892.103,419.275c-29.403-23.418-38.603-40.576-40.908-45.85
	l113.643-85.527c1.406,0.166,2.804,0.322,4.21,0.459c-0.079,3.105,0.146,15.566,7.567,32.188
	c6.669,14.951,20.507,35.966,49.032,56.757L892.103,419.275z M791.215,405.75c-42.039-9.932-65.593-16.494-65.842-16.563
	l-0.083-0.019l-0.083,0.009c-0.258,0.029-0.518,0.049-0.776,0.068l13.511-53.105c14.443,6.826,52.501,23.438,100.753,33.838
	L791.215,405.75z M651.955,382.489c-14.712,8.046-38.364,12.568-52.255,14.658l-49.653-43.74c8.588-1.572,21.684-4.248,35.36-8.066
	c21.045-5.889,36.709-12.48,46.86-19.697L651.955,382.489z M538.841,356.375c-4.361,16.465-21.421,32.549-32.666,41.68
	l-134.409-58.339c12.954-11.016,50.835-45.732,57.261-79.98L538.841,356.375z M370.194,349.246
	C414.378,422.83,342.313,564,331.322,584.625l-102.694,30.029c6.499-11.459,32.592-59.004,51.508-115.404
	c12.725-37.944,19.761-72.417,20.913-102.465c1.329-34.727-5.263-63.604-19.565-85.996L370.194,349.246z M339.94,592.228
	c50.615,25.43,98.286,112.051,113.491,141.747l-61.812,66.188c-7.856-14.248-25.405-44.795-48.349-76.954
	c-26.074-36.546-64.116-81.933-103.496-101.635L339.94,592.228z M459.666,742.833l87.358-93.647
	c45.942,10.117,94.814,50.116,107.666,61.19l-13.486,117.535c-8.71-7.364-28.339-23.188-53.896-39.082
	c-31.992-19.897-80.029-43.927-127.509-45.718C459.764,743.034,459.71,742.931,459.666,742.833z M665.671,710.089
	c37.519-13.916,103.527,6.436,104.23,6.659l0.439,0.138l0.146-0.27L821.552,841.9c-0.703,1.396-1.377,2.832-1.982,4.322
	c-5.147-2.179-33.185-13.736-66.335-21.299c-31.075-7.09-72.603-11.876-100.996,2.816L665.671,710.089z M777.382,706.061
	c13.506-17.681,33.554-31.073,41.631-36.06l89.677,116.371c0.021,4.263,0.226,8.502,0.636,12.7
	c-3.829,0.044-19.757,0.548-37.306,5.602c-14.169,4.087-31.621,11.874-43.535,26.566L777.382,706.061z M911.014,773.004
	c8.633-92.432,106.034-166.826,107.118-167.637l0.527-0.396l-0.41-0.552c-2.528-3.442-4.746-7.061-6.698-10.819l96.356,28.861
	c1.494,2.457,3.047,4.849,4.707,7.153c-5.146,3.99-40.488,31.958-73.916,74.033c-21.132,26.605-37.372,53.564-48.271,80.127
	c-9.863,24.048-15.322,47.812-16.367,70.961L911.014,773.004z M1104.43,611.637c-45.165-95.858,42.437-258.866,43.385-260.613
	l0.399-0.732l-0.82-0.498c-0.155-0.098-0.302-0.186-0.458-0.284l156.445-49.101c-10.118,20.059-34.786,71.865-52.286,132.578
	c-13.163,45.683-19.751,87.396-19.585,123.994c0.186,39.325,8.224,72.812,23.916,99.814L1104.43,611.637z M1027.425,376.736
	c-59.619-43.037-56.681-88.427-56.641-88.915l0.068-0.762l-0.889-0.088c-1.133-0.117-2.265-0.245-3.407-0.362l85.027-63.994
	c-0.077,4.317,0.352,20.186,9.746,41.241c9.287,20.781,29.326,50.693,72.334,79.492L1027.425,376.736z M839.652,369.256
	c-48.76-10.41-87.194-27.246-101.482-34.023l29.636-116.523c10.693,6.24,29.883,16.846,54.511,27.9
	c31.455,14.121,77.744,31.573,127.939,39.326L839.652,369.256z M727.585,332.792c-41.666,4.814-83.994-18.818-84.434-19.072
	l-0.488-0.274l-0.249,0.42c-0.61,1.044-1.333,2.07-2.139,3.076l-40.888-118.271c10.21,3.164,28.184,8.301,49.482,12.491
	c30.297,5.947,73.627,11.123,108.995,2.304L727.585,332.792z M631.911,324.618c-21.523,15.439-63.896,24.54-82.772,27.997
	L437.21,254.022c12.607-1.348,38.262-4.57,65.01-10.761c46.333-10.743,75.39-25.234,86.582-43.115L631.911,324.618z
	 M427.523,258.407c-5.85,34.56-44.908,69.98-57.437,80.576l-86.85-37.705c16.475-15.39,63.764-62.919,70.903-107.441
	L427.523,258.407z M293.334,905.41c-8.066-13.822-33.11-55.434-67.304-99.822c-38.232-49.629-95.986-112.856-154.809-133.687
	c0.161-0.317,0.352-0.688,0.571-1.117l165.292-48.424c68.994,33.076,136.187,148.818,153.037,179.408L293.334,905.41z
	 M560.051,866.832c-40.542-25.215-101.093-55.561-161.283-58.715l59.702-64.005l0.205,0.439l0.595,0.021
	c79.951,2.7,162.895,69.189,181.723,85.175l-10.161,88.579C620.413,909.444,594.382,888.183,560.051,866.832z M860.525,937.525
	c-0.488,1.049-0.957,2.118-1.415,3.208c-6.621-2.808-42.726-17.687-85.411-27.422c-40.626-9.272-95.152-15.498-131.744,4.512
	l10.068-88.193c55.454-30.209,166.55,17.769,167.712,18.271l0.859,0.377l0.293-0.747c0.469-1.201,0.986-2.362,1.532-3.505
	L860.525,937.525z M974.695,880.024c-4.922,0.059-25.449,0.703-48.037,7.218c-19.647,5.664-44.219,16.864-59.491,38.764
	l-37.959-92.988c25.614-32.767,80.469-32.465,81.093-32.454l0.879,0.01l-0.078-0.768c-0.391-3.744-0.596-7.471-0.674-11.177
	l63.652,82.598C974.216,874.17,974.412,877.105,974.695,880.024z M1163.434,768.703c-28.524,35.913-50.449,72.305-65.156,108.153
	c-15.35,37.397-22.791,74.291-22.313,109.984L976.17,857.465c3.984-124.065,137.195-225.789,138.622-226.862l0.683-0.513
	l-0.517-0.703c-1.455-1.974-2.813-3.99-4.112-6.046l152.179,45.582C1255.466,674.792,1208.17,712.383,1163.434,768.703z
	 M1445.039,255.956c-13.876,28.135-41.436,88.017-61.406,157.314c-16.23,56.318-24.359,107.753-24.145,152.875
	c0.243,53.081,12.1,97.535,35.244,132.314l-135.37-40.483c-69.629-115.171,28.315-320.096,48.021-358.816L1445.039,255.956z
	 M1180.959,125.254c0.565,9.531,3.066,27.519,13.027,49.843c13.34,29.883,43.163,73.75,109.403,114.892l-167.372,52.617
	c-86.318-57.216-82.236-120.234-82.188-120.888l0.079-0.84L1180.959,125.254z M862.659,168.662
	c42.48,19.072,105.967,42.852,174.229,52.011l-85,64.033c-83.739-12.597-158.651-52.9-183.69-67.509l21.846-85.889
	C803.197,139.082,828.968,153.524,862.659,168.662z M632.751,121.27c42.1,8.476,101.66,16.093,147.341,4.6l-21.803,85.917
	c-56.344,14.55-134.605-7.099-159.508-14.854l-31.865-92.167C581.692,109.199,605.393,115.762,632.751,121.27z M442.811,167.539
	c60.668-19.297,97.309-42.021,108.964-67.549c0.605,0.205,1.499,0.498,2.637,0.869l33.657,97.187
	c-22.007,38.398-124.765,51.699-152.402,54.619l-73.74-64.961C376.4,185,408.832,178.349,442.811,167.539z M235.165,89.131
	l116.992,102.958c-6.348,44.833-55,93.339-71.054,108.261l-147.797-64.16C153.428,219.501,228.276,153.407,235.165,89.131z"/>
</svg>
