<?xml version="1.0" encoding="utf-8"?>
<!-- Generator: Adobe Illustrator 15.0.2, SVG Export Plug-In  -->
<!DOCTYPE svg PUBLIC "-//W3C//DTD SVG 1.1//EN" "http://www.w3.org/Graphics/SVG/1.1/DTD/svg11.dtd" [
	<!ENTITY ns_flows "http://ns.adobe.com/Flows/1.0/">
]>
<svg version="1.1"
	 xmlns="http://www.w3.org/2000/svg" xmlns:xlink="http://www.w3.org/1999/xlink" xmlns:a="http://ns.adobe.com/AdobeSVGViewerExtensions/3.0/"
	 x="0px" y="0px" width="768px" height="200px" viewBox="-9.04 -11.519 768 200" enable-background="new -9.04 -11.519 768 200"
	 xml:space="preserve">
<defs>
</defs>
<g>
	<path fill="none" stroke="#ED1C24" stroke-width="0.198" stroke-miterlimit="10" d="M565.565,179.481
		c0,0-63.293-239.417-203.639-145.852c-102.822,68.547-121.086,85.309-155.484,61.918c-57.219-38.91,0-143.1-75.677-70.175
		C55.087,98.299,53.711,66.652,4.177,36.381"/>
	<path fill="none" stroke="#ED1D24" stroke-width="0.198" stroke-miterlimit="10" d="M567.404,178.323
		c0,0-64.721-237.258-205.097-143.74c-102.88,68.536-120.643,83.957-155.13,60.434c-57.103-38.906-0.6-141.928-76.277-69.003
		C55.223,98.94,53.902,66.407,4.136,36.027"/>
	<path fill="none" stroke="#ED1E24" stroke-width="0.198" stroke-miterlimit="10" d="M569.244,177.165
		c0,0-66.149-235.101-206.555-141.628c-102.938,68.525-120.2,82.605-154.776,58.949c-56.985-38.903-1.199-140.756-76.876-67.832
		C55.359,99.58,54.093,66.162,4.095,35.672"/>
	<path fill="none" stroke="#ED2024" stroke-width="0.198" stroke-miterlimit="10" d="M571.083,176.007
		c0,0-67.577-232.944-208.012-139.518c-102.997,68.514-119.757,81.253-154.422,57.464c-56.868-38.899-1.798-139.585-77.476-66.66
		C55.496,100.22,54.284,65.917,4.054,35.318"/>
	<path fill="none" stroke="#ED2124" stroke-width="0.198" stroke-miterlimit="10" d="M572.922,174.849
		c0,0-69.005-230.786-209.47-137.406c-103.055,68.502-119.314,79.901-154.067,55.979c-56.751-38.895-2.398-138.414-78.075-65.489
		c-75.678,72.927-76.835,37.738-127.296,7.03"/>
	<path fill="none" stroke="#ED2224" stroke-width="0.198" stroke-miterlimit="10" d="M574.761,173.691
		c0,0-70.433-228.628-210.927-135.294c-103.113,68.492-118.871,78.548-153.713,54.494C153.486,54,207.123-44.351,131.446,28.574
		C55.768,101.5,54.665,65.426,3.972,34.61"/>
	<path fill="none" stroke="#EE2324" stroke-width="0.198" stroke-miterlimit="10" d="M576.601,172.533
		c0,0-71.861-226.47-212.386-133.182c-103.171,68.481-118.427,77.196-153.359,53.009c-56.518-38.888-3.597-136.07-79.274-63.146
		c-75.678,72.927-76.726,35.967-127.65,5.041"/>
	<path fill="none" stroke="#EE2424" stroke-width="0.198" stroke-miterlimit="10" d="M578.439,171.375
		c0,0-73.289-224.313-213.843-131.071c-103.229,68.47-117.984,75.844-153.005,51.524c-56.4-38.884-4.196-134.899-79.873-61.974
		C56.041,102.782,55.046,64.936,3.891,33.901"/>
	<path fill="none" stroke="#EE2624" stroke-width="0.198" stroke-miterlimit="10" d="M580.278,170.217
		c0,0-74.717-222.155-215.301-128.959c-103.287,68.458-117.541,74.492-152.65,50.039c-56.284-38.879-4.795-133.726-80.473-60.801
		C56.177,103.421,55.237,64.69,3.85,33.547"/>
	<path fill="none" stroke="#EE2723" stroke-width="0.198" stroke-miterlimit="10" d="M582.118,169.059
		c0,0-76.146-219.997-216.759-126.848c-103.346,68.447-117.046,73.064-152.296,48.554c-56.083-38.996-5.395-132.555-81.072-59.63
		c-75.678,72.927-76.563,33.31-128.182,2.058"/>
	<path fill="none" stroke="#EE2823" stroke-width="0.198" stroke-miterlimit="10" d="M583.957,167.901
		c0,0-77.573-217.839-218.216-124.736c-103.404,68.436-116.597,71.705-151.942,47.069c-55.958-39.003-5.994-131.383-81.671-58.458
		C56.449,104.703,55.619,64.2,3.768,32.839"/>
	<path fill="none" stroke="#EE2923" stroke-width="0.198" stroke-miterlimit="10" d="M585.796,166.743
		c0,0-79.001-215.681-219.674-122.624c-103.462,68.425-116.148,70.346-151.588,45.584c-55.833-39.011-6.594-130.211-82.271-57.287
		C56.585,105.342,55.81,63.955,3.727,32.484"/>
	<path fill="none" stroke="#EE2A23" stroke-width="0.198" stroke-miterlimit="10" d="M587.635,165.585
		c0,0-80.429-213.524-221.131-120.513c-103.52,68.413-115.701,68.985-151.233,44.099c-55.709-39.018-7.193-129.04-82.871-56.115
		C56.722,105.983,56,63.709,3.687,32.13"/>
	<path fill="none" stroke="#EE2B23" stroke-width="0.198" stroke-miterlimit="10" d="M589.475,164.427
		c0,0-81.857-211.366-222.59-118.401c-103.578,68.402-115.252,67.626-150.879,42.614c-55.584-39.024-7.792-127.869-83.47-54.943
		c-75.678,72.927-76.345,29.768-128.89-1.92"/>
	<path fill="none" stroke="#EE2D23" stroke-width="0.198" stroke-miterlimit="10" d="M591.313,163.269
		c0,0-83.285-209.208-224.047-116.289c-103.637,68.392-114.805,66.268-150.525,41.129c-55.46-39.03-8.392-126.697-84.069-53.772
		c-75.678,72.926-76.29,28.882-129.067-2.915"/>
	<path fill="none" stroke="#EE2E23" stroke-width="0.198" stroke-miterlimit="10" d="M593.152,162.111
		c0,0-84.713-207.05-225.504-114.177c-103.695,68.38-114.356,64.909-150.171,39.644c-55.336-39.036-8.991-125.525-84.668-52.601
		C57.13,107.904,56.572,62.974,3.563,31.068"/>
	<path fill="none" stroke="#EF2F23" stroke-width="0.198" stroke-miterlimit="10" d="M594.992,160.954
		c0,0-86.142-204.894-226.963-112.066c-103.753,68.369-113.909,63.55-149.817,38.159C163,48.005,208.622-37.308,132.944,35.618
		C57.267,108.543,56.763,62.729,3.523,30.713"/>
	<path fill="none" stroke="#EF3023" stroke-width="0.198" stroke-miterlimit="10" d="M596.831,159.795
		c0,0-87.569-202.735-228.42-109.955C264.6,118.199,254.95,112.032,218.948,86.515c-55.089-39.046-10.19-123.182-85.868-50.257
		C57.403,109.184,56.954,62.483,3.482,30.359"/>
	<path fill="none" stroke="#EF3123" stroke-width="0.198" stroke-miterlimit="10" d="M598.67,158.637
		c0,0-88.998-200.578-229.878-107.843c-103.869,68.347-113.013,60.833-149.108,35.189c-54.966-39.05-10.79-122.011-86.467-49.086
		c-75.678,72.927-76.072,25.34-129.776-6.893"/>
	<path fill="none" stroke="#EF3323" stroke-width="0.198" stroke-miterlimit="10" d="M600.51,157.479
		c0,0-90.427-198.419-231.336-105.731c-103.927,68.335-112.565,59.475-148.754,33.705c-54.843-39.055-11.389-120.839-87.066-47.914
		C57.675,110.464,57.335,61.993,3.4,29.651"/>
	<path fill="none" stroke="#EF3423" stroke-width="0.198" stroke-miterlimit="10" d="M602.349,156.321
		c0,0-91.854-196.262-232.793-103.619c-103.986,68.324-112.118,58.117-148.4,32.22c-54.721-39.059-11.989-119.667-87.666-46.743
		c-75.678,72.926-75.963,23.569-130.13-8.882"/>
	<path fill="none" stroke="#EF3523" stroke-width="0.198" stroke-miterlimit="10" d="M604.188,155.164
		c0,0-93.282-194.105-234.251-101.508c-104.044,68.313-111.671,56.76-148.046,30.735c-54.598-39.063-12.588-118.496-88.265-45.571
		C57.948,111.746,57.717,61.502,3.318,28.942"/>
	<path fill="none" stroke="#EF3623" stroke-width="0.198" stroke-miterlimit="10" d="M606.026,154.005
		c0,0-94.71-191.947-235.708-99.396c-104.102,68.302-111.224,55.402-147.691,29.25c-54.476-39.066-13.188-117.325-88.865-44.399
		C58.084,112.385,57.908,61.257,3.278,28.588"/>
	<path fill="none" stroke="#EF3723" stroke-width="0.198" stroke-miterlimit="10" d="M607.866,152.847
		c0,0-96.139-189.789-237.167-97.285c-104.16,68.292-110.776,54.045-147.337,27.765C169.008,44.259,209.575-32.825,133.898,40.1
		C58.22,113.026,58.098,61.012,3.237,28.234"/>
	<path fill="none" stroke="#EF3923" stroke-width="0.198" stroke-miterlimit="10" d="M609.705,151.689
		c0,0-97.566-187.631-238.625-95.173c-104.218,68.28-110.329,52.688-146.983,26.279c-54.231-39.071-14.386-114.98-90.063-42.056
		C58.356,113.667,58.289,60.767,3.196,27.88"/>
	<path fill="none" stroke="#EF3A23" stroke-width="0.198" stroke-miterlimit="10" d="M611.544,150.532
		c0,0-98.994-185.474-240.082-93.062C267.186,125.739,261.58,108.8,224.833,82.264C170.724,43.19,209.848-31.545,134.171,41.38
		C58.493,114.306,58.479,60.522,3.155,27.526"/>
	<path fill="none" stroke="#F03B22" stroke-width="0.198" stroke-miterlimit="10" d="M613.384,149.374
		c0,0-100.423-183.316-241.54-90.95c-104.335,68.258-109.436,49.973-146.275,23.31c-53.988-39.075-15.585-112.637-91.262-39.712
		C58.629,114.947,58.67,60.276,3.114,27.171"/>
	<path fill="none" stroke="#F03C22" stroke-width="0.198" stroke-miterlimit="10" d="M615.223,148.215
		c0,0-101.851-181.158-242.998-88.838c-104.393,68.247-108.989,48.617-145.92,21.825c-53.867-39.077-16.185-111.466-91.861-38.541
		C58.766,115.587,58.861,60.031,3.073,26.817"/>
	<path fill="none" stroke="#F03D22" stroke-width="0.198" stroke-miterlimit="10" d="M617.062,147.057
		c0,0-103.278-179-244.455-86.727c-104.451,68.235-108.542,47.26-145.566,20.34c-53.746-39.078-16.784-110.294-92.46-37.369
		C58.902,116.227,59.052,59.786,3.032,26.463"/>
	<path fill="none" stroke="#F03E22" stroke-width="0.198" stroke-miterlimit="10" d="M618.9,145.899
		c0,0-104.706-176.842-245.913-84.615c-104.509,68.224-108.096,45.904-145.212,18.855c-53.625-39.079-17.383-109.123-93.06-36.198
		c-75.678,72.926-75.473,15.6-131.724-17.833"/>
	<path fill="none" stroke="#F04022" stroke-width="0.198" stroke-miterlimit="10" d="M620.74,144.742
		c0,0-106.135-174.686-247.371-82.504c-104.567,68.213-107.649,44.548-144.857,17.37c-53.504-39.08-17.983-107.951-93.66-35.026
		C59.174,117.508,59.433,59.295,2.951,25.755"/>
	<path fill="none" stroke="#F04122" stroke-width="0.198" stroke-miterlimit="10" d="M622.579,143.583
		c0,0-107.563-172.527-248.828-80.392c-104.626,68.202-107.204,43.192-144.504,15.885c-53.384-39.081-18.582-106.78-94.259-33.854
		C59.311,118.148,59.624,59.05,2.91,25.4"/>
	<path fill="none" stroke="#F04222" stroke-width="0.198" stroke-miterlimit="10" d="M624.418,142.425
		c0,0-108.99-170.37-250.286-78.28c-104.684,68.191-106.757,41.836-144.149,14.4c-53.264-39.081-19.182-105.608-94.858-32.683
		C59.447,118.789,59.815,58.805,2.869,25.046"/>
	<path fill="none" stroke="#F04322" stroke-width="0.198" stroke-miterlimit="10" d="M626.258,141.267
		c0,0-110.419-168.211-251.744-76.168c-104.742,68.18-106.311,40.481-143.795,12.916c-53.144-39.081-19.781-104.437-95.458-31.512
		C59.583,119.429,60.005,58.56,2.828,24.692"/>
	<path fill="none" stroke="#F04422" stroke-width="0.198" stroke-miterlimit="10" d="M628.097,140.11
		c0,0-111.847-166.055-253.202-74.058c-104.8,68.169-105.865,39.125-143.441,11.431c-53.023-39.08-20.38-103.265-96.057-30.34
		C59.719,120.069,60.196,58.315,2.787,24.338"/>
	<path fill="none" stroke="#F04622" stroke-width="0.198" stroke-miterlimit="10" d="M629.936,138.952
		c0,0-113.274-163.896-254.659-71.946c-104.858,68.158-105.419,37.77-143.086,9.946c-52.904-39.079-20.98-102.093-96.657-29.168
		c-75.678,72.926-75.146,10.286-132.787-23.8"/>
	<path fill="none" stroke="#F14722" stroke-width="0.198" stroke-miterlimit="10" d="M631.774,137.793
		c0,0-114.702-161.739-256.117-69.834c-104.917,68.146-104.974,36.414-142.732,8.461c-52.785-39.078-21.579-100.922-97.256-27.997
		c-75.678,72.926-75.092,9.4-132.964-24.794"/>
	<path fill="none" stroke="#F14822" stroke-width="0.198" stroke-miterlimit="10" d="M633.614,136.635
		c0,0-116.131-159.581-257.575-67.722c-104.975,68.135-104.528,35.059-142.378,6.976c-52.666-39.077-22.179-99.75-97.855-26.825
		C60.128,121.99,60.769,57.579,2.665,23.275"/>
	<path fill="none" stroke="#F14922" stroke-width="0.198" stroke-miterlimit="10" d="M635.453,135.477
		c0,0-117.559-157.423-259.032-65.61c-105.033,68.124-104.083,33.705-142.024,5.491c-52.547-39.075-22.778-98.579-98.455-25.654
		C60.264,122.63,60.959,57.334,2.624,22.921"/>
	<path fill="none" stroke="#F14A22" stroke-width="0.198" stroke-miterlimit="10" d="M637.292,134.32
		c0,0-118.986-155.266-260.49-63.499c-105.091,68.112-103.637,32.35-141.669,4.005c-52.427-39.073-23.377-97.406-99.054-24.481
		C60.4,123.27,61.15,57.088,2.583,22.567"/>
	<path fill="none" stroke="#F14C22" stroke-width="0.198" stroke-miterlimit="10" d="M639.132,133.162
		c0,0-120.415-153.108-261.948-61.388c-105.149,68.102-103.192,30.996-141.315,2.521c-52.309-39.07-23.977-96.235-99.654-23.31
		C60.537,123.911,61.341,56.843,2.542,22.212"/>
	<path fill="none" stroke="#F14D22" stroke-width="0.198" stroke-miterlimit="10" d="M640.971,132.003
		c0,0-121.843-150.95-263.405-59.275c-105.208,68.09-102.748,29.642-140.961,1.035c-52.19-39.068-24.577-95.063-100.253-22.138
		c-75.678,72.926-74.819,4.973-133.85-29.767"/>
	<path fill="none" stroke="#F14E22" stroke-width="0.198" stroke-miterlimit="10" d="M642.81,130.845
		c0,0-123.271-148.792-264.863-57.164c-105.266,68.08-102.302,28.288-140.607-0.449c-52.072-39.065-25.176-93.892-100.853-20.966
		C60.809,125.191,61.722,56.353,2.46,21.504"/>
	<path fill="none" stroke="#F14F21" stroke-width="0.198" stroke-miterlimit="10" d="M644.648,129.688
		c0,0-124.698-146.635-266.32-55.053c-105.324,68.068-101.858,26.934-140.253-1.935C186.121,33.638,212.3-20.02,136.623,52.906
		C60.945,125.832,61.913,56.108,2.419,21.15"/>
	<path fill="none" stroke="#F15021" stroke-width="0.198" stroke-miterlimit="10" d="M646.488,128.53
		c0,0-126.127-144.477-267.779-52.941c-105.382,68.058-101.413,25.581-139.898-3.419c-51.836-39.06-26.375-91.548-102.051-18.624
		c-75.678,72.926-74.656,2.316-134.381-32.75"/>
	<path fill="none" stroke="#F15121" stroke-width="0.198" stroke-miterlimit="10" d="M648.327,127.372
		c0,0-127.555-142.319-269.236-50.829c-105.44,68.046-100.969,24.227-139.544-4.904c-51.718-39.056-26.974-90.377-102.651-17.452
		C61.218,127.112,62.294,55.617,2.337,20.441"/>
	<path fill="none" stroke="#F25321" stroke-width="0.198" stroke-miterlimit="10" d="M650.166,126.213
		c0,0-128.982-140.161-270.693-48.718c-105.499,68.035-100.525,22.873-139.19-6.389c-51.601-39.052-27.574-89.205-103.25-16.28
		C61.354,127.752,62.485,55.372,2.297,20.087"/>
	<path fill="none" stroke="#F25421" stroke-width="0.198" stroke-miterlimit="10" d="M652.006,125.055
		c0,0-130.411-138.003-272.152-46.605c-105.557,68.023-100.081,21.521-138.836-7.874c-51.483-39.048-28.173-88.034-103.85-15.109
		C61.49,128.393,62.676,55.127,2.256,19.733"/>
	<path fill="none" stroke="#F25521" stroke-width="0.198" stroke-miterlimit="10" d="M653.845,123.898
		c0,0-131.839-135.847-273.609-44.495c-105.615,68.013-99.637,20.168-138.482-9.358c-51.367-39.043-28.772-86.862-104.449-13.937
		C61.626,129.033,62.866,54.882,2.215,19.379"/>
	<path fill="none" stroke="#F25621" stroke-width="0.198" stroke-miterlimit="10" d="M655.684,122.74
		c0,0-133.267-133.688-275.067-42.383c-105.673,68.001-99.192,18.814-138.127-10.844c-51.25-39.039-29.372-85.69-105.049-12.766
		C61.763,129.673,63.057,54.636,2.174,19.025"/>
	<path fill="none" stroke="#F25721" stroke-width="0.198" stroke-miterlimit="10" d="M657.522,121.582
		c0,0-134.694-131.531-276.524-40.271C275.267,149.3,282.249,98.773,243.225,68.982c-51.133-39.035-29.971-84.519-105.648-11.594
		C61.899,130.314,63.248,54.391,2.133,18.67"/>
	<path fill="none" stroke="#F25921" stroke-width="0.198" stroke-miterlimit="10" d="M659.362,120.423
		c0,0-136.124-129.373-277.982-38.159C275.59,150.244,283.074,98.374,243.96,68.45c-51.016-39.029-30.57-83.347-106.248-10.422
		C62.035,130.954,63.438,54.146,2.092,18.316"/>
	<path fill="none" stroke="#F25A21" stroke-width="0.198" stroke-miterlimit="10" d="M661.201,119.266
		c0,0-137.552-127.216-279.44-36.048c-105.848,67.968-97.862,14.758-137.065-15.299c-50.899-39.024-31.169-82.175-106.847-9.25
		c-75.678,72.926-74.22-4.768-135.798-40.707"/>
	<path fill="none" stroke="#F25B21" stroke-width="0.198" stroke-miterlimit="10" d="M663.04,118.108
		c0,0-138.979-125.058-280.897-33.937c-105.906,67.957-97.418,13.406-136.711-16.784c-50.784-39.019-31.769-81.004-107.446-8.079
		C62.308,132.235,63.82,53.655,2.011,17.608"/>
	<path fill="none" stroke="#F25C21" stroke-width="0.198" stroke-miterlimit="10" d="M664.88,116.95
		c0,0-140.408-122.9-282.356-31.824c-105.964,67.945-96.975,12.054-136.356-18.269c-50.667-39.013-32.369-79.833-108.046-6.907
		C62.444,132.875,64.011,53.41,1.97,17.254"/>
	<path fill="none" stroke="#F25D21" stroke-width="0.198" stroke-miterlimit="10" d="M666.719,115.792
		c0,0-141.836-120.742-283.813-29.713c-106.022,67.935-96.532,10.703-136.002-19.753c-50.552-39.007-32.968-78.661-108.645-5.736
		C62.58,133.515,64.202,53.165,1.929,16.899"/>
	<path fill="none" stroke="#F35F21" stroke-width="0.198" stroke-miterlimit="10" d="M668.558,114.633
		c0,0-143.264-118.584-285.271-27.601c-106.08,67.923-96.089,9.351-135.647-21.239c-50.437-39.001-33.567-77.489-109.245-4.564
		C62.716,134.156,64.392,52.92,1.888,16.545"/>
	<path fill="none" stroke="#F36021" stroke-width="0.198" stroke-miterlimit="10" d="M670.396,113.476
		c0,0-144.691-116.427-286.729-25.49c-106.139,67.912-95.647,8-135.293-22.723c-50.321-38.994-34.167-76.318-109.844-3.393
		C62.853,134.795,64.583,52.675,1.847,16.191"/>
	<path fill="none" stroke="#F36121" stroke-width="0.198" stroke-miterlimit="10" d="M672.236,112.318
		c0,0-146.12-114.269-288.187-23.378c-106.197,67.9-95.205,6.648-134.94-24.208c-50.206-38.988-34.766-75.146-110.443-2.221
		C62.989,135.436,64.774,52.429,1.806,15.837"/>
	<path fill="none" stroke="#F36220" stroke-width="0.198" stroke-miterlimit="10" d="M674.075,111.16
		c0,0-147.548-112.111-289.645-21.267c-106.255,67.89-94.762,5.298-134.585-25.693c-50.09-38.981-35.366-73.974-111.043-1.049
		C63.125,136.077,64.964,52.184,1.766,15.482"/>
	<path fill="none" stroke="#F36320" stroke-width="0.198" stroke-miterlimit="10" d="M675.914,110.001
		c0,0-148.976-109.953-291.102-19.154c-106.313,67.879-94.32,3.947-134.231-27.179c-49.975-38.974-35.965-72.803-111.642,0.123
		C63.261,136.716,65.155,51.939,1.725,15.128"/>
	<path fill="none" stroke="#F36420" stroke-width="0.198" stroke-miterlimit="10" d="M677.754,108.844
		c0,0-150.404-107.796-292.561-17.044c-106.371,67.868-93.877,2.597-133.876-28.663c-49.861-38.967-36.564-71.631-112.242,1.294
		C63.397,137.357,65.346,51.694,1.684,14.774"/>
	<path fill="none" stroke="#F36620" stroke-width="0.198" stroke-miterlimit="10" d="M679.593,107.686
		c0,0-151.832-105.638-294.018-14.932C279.146,160.611,292.14,94,252.053,62.606c-49.746-38.959-37.164-70.459-112.841,2.466
		C63.534,137.998,65.537,51.448,1.643,14.42"/>
	<path fill="none" stroke="#F36720" stroke-width="0.198" stroke-miterlimit="10" d="M681.432,106.528
		c0,0-153.26-103.48-295.475-12.82c-106.488,67.846-92.994-0.104-133.169-31.633c-49.631-38.952-37.763-69.288-113.44,3.637
		C63.67,138.637,65.728,51.203,1.602,14.066"/>
	<path fill="none" stroke="#F36820" stroke-width="0.198" stroke-miterlimit="10" d="M683.271,105.37
		c0,0-154.688-101.322-296.933-10.708c-106.546,67.834-92.552-1.453-132.814-33.118c-49.517-38.944-38.363-68.116-114.04,4.809
		C63.806,139.278,65.918,50.958,1.561,13.711"/>
	<path fill="none" stroke="#F36920" stroke-width="0.198" stroke-miterlimit="10" d="M685.11,104.211
		c0,0-156.116-99.165-298.391-8.597c-106.604,67.823-92.111-2.803-132.46-34.603c-49.403-38.936-38.962-66.945-114.64,5.98
		c-75.678,72.925-73.511-16.28-138.1-53.635"/>
	<path fill="none" stroke="#F46A20" stroke-width="0.198" stroke-miterlimit="10" d="M686.949,103.054
		c0,0-157.544-97.008-299.849-6.485c-106.662,67.812-91.669-4.153-132.105-36.088c-49.29-38.927-39.562-65.773-115.239,7.152
		C64.079,140.558,66.3,50.468,1.479,13.003"/>
	<path fill="none" stroke="#F46C20" stroke-width="0.198" stroke-miterlimit="10" d="M688.788,101.896
		c0,0-158.972-94.85-301.306-4.374c-106.721,67.801-91.228-5.502-131.751-37.573c-49.176-38.918-40.161-64.601-115.838,8.324
		C64.215,141.199,66.49,50.222,1.438,12.649"/>
	<path fill="none" stroke="#F46D20" stroke-width="0.198" stroke-miterlimit="10" d="M690.628,100.738
		c0,0-160.4-92.692-302.764-2.262c-106.779,67.789-90.788-6.852-131.398-39.058c-49.062-38.91-40.76-63.43-116.438,9.496
		C64.351,141.838,66.681,49.977,1.397,12.295"/>
	<path fill="none" stroke="#F46E20" stroke-width="0.198" stroke-miterlimit="10" d="M692.467,99.58
		c0,0-161.828-90.534-304.222-0.15c-106.837,67.779-90.347-8.199-131.043-40.542c-48.949-38.901-41.36-62.258-117.037,10.667
		C64.487,142.479,66.872,49.732,1.356,11.94"/>
	<path fill="none" stroke="#F46F20" stroke-width="0.198" stroke-miterlimit="10" d="M694.306,98.422
		c0,0-163.256-88.377-305.679,1.961c-106.896,67.768-89.906-9.549-130.689-42.028c-48.835-38.892-41.959-61.086-117.637,11.838
		C64.624,143.12,67.063,49.487,1.316,11.586"/>
	<path fill="none" stroke="#F47020" stroke-width="0.198" stroke-miterlimit="10" d="M696.145,97.264
		c0,0-164.684-86.219-307.137,4.072c-106.953,67.757-89.465-10.896-130.334-43.512c-48.722-38.883-42.559-59.915-118.236,13.01
		C64.76,143.759,67.253,49.242,1.275,11.232"/>
	<path fill="none" stroke="#F47220" stroke-width="0.198" stroke-miterlimit="10" d="M697.984,96.106
		c0,0-166.112-84.061-308.595,6.185c-107.012,67.745-89.025-12.245-129.98-44.998c-48.61-38.874-43.158-58.744-118.835,14.181
		C64.896,144.4,67.444,48.996,1.234,10.878"/>
	<path fill="none" stroke="#F47320" stroke-width="0.198" stroke-miterlimit="10" d="M699.823,94.948
		c0,0-167.54-81.903-310.052,8.296c-107.07,67.734-88.585-13.593-129.626-46.482C211.648,17.897,216.387-0.81,140.71,72.115
		C65.032,145.041,67.635,48.751,1.193,10.524"/>
	<path fill="none" stroke="#F47420" stroke-width="0.198" stroke-miterlimit="10" d="M701.662,93.79
		c0,0-168.968-79.745-311.51,10.408C283.024,171.92,302.008,89.256,260.88,56.23c-48.384-38.854-44.357-56.4-120.034,16.525
		C65.168,145.68,67.825,48.506,1.152,10.169"/>
	<path fill="none" stroke="#F47520" stroke-width="0.198" stroke-miterlimit="10" d="M703.502,92.632
		c0,0-170.396-77.588-312.968,12.519c-107.187,67.712-87.705-16.288-128.918-49.452C213.344,16.854,216.66,0.47,140.982,73.396
		C65.305,146.321,68.016,48.261,1.111,9.815"/>
	<path fill="none" stroke="#F5761F" stroke-width="0.198" stroke-miterlimit="10" d="M705.341,91.474
		c0,0-171.824-75.43-314.426,14.631c-107.244,67.7-87.266-17.637-128.563-50.938c-48.16-38.833-45.556-54.057-121.232,18.868
		C65.441,146.961,68.207,48.015,1.071,9.461"/>
	<path fill="none" stroke="#F5771F" stroke-width="0.198" stroke-miterlimit="10" d="M707.18,90.316
		c0,0-173.252-73.272-315.883,16.743c-107.303,67.688-86.826-18.984-128.209-52.423c-48.048-38.823-46.155-52.885-121.832,20.04
		C65.578,147.601,68.397,47.77,1.03,9.107"/>
	<path fill="none" stroke="#F5791F" stroke-width="0.198" stroke-miterlimit="10" d="M709.019,89.158
		c0,0-174.68-71.114-317.341,18.854c-107.36,67.679-86.387-20.331-127.854-53.907c-47.936-38.813-46.755-51.714-122.432,21.212
		C65.714,148.242,68.588,47.525,0.989,8.753"/>
	<path fill="none" stroke="#F57A1F" stroke-width="0.198" stroke-miterlimit="10" d="M710.858,88c0,0-176.108-68.958-318.799,20.966
		c-107.419,67.667-85.948-21.679-127.501-55.393c-47.824-38.802-47.354-50.542-123.031,22.383
		C65.85,148.882,68.779,47.28,0.948,8.398"/>
	<path fill="none" stroke="#F57B1F" stroke-width="0.198" stroke-miterlimit="10" d="M712.697,86.842
		c0,0-177.536-66.799-320.256,23.077c-107.478,67.656-85.509-23.024-127.147-56.877c-47.713-38.792-47.954-49.371-123.63,23.555
		C65.986,149.522,68.97,47.035,0.907,8.044"/>
	<path fill="none" stroke="#F57C1F" stroke-width="0.198" stroke-miterlimit="10" d="M714.536,85.684
		c0,0-178.964-64.642-321.714,25.189c-107.535,67.645-85.07-24.372-126.792-58.362c-47.601-38.78-48.553-48.199-124.23,24.727
		C66.123,150.163,69.161,46.789,0.866,7.69"/>
	<path fill="none" stroke="#F57D1F" stroke-width="0.198" stroke-miterlimit="10" d="M716.376,84.526
		c0,0-180.393-62.483-323.172,27.301C285.61,179.46,308.572,86.109,266.766,51.979c-47.49-38.769-49.152-47.027-124.829,25.898
		C66.259,150.803,69.351,46.544,0.825,7.336"/>
	<path fill="none" stroke="#F57F1F" stroke-width="0.198" stroke-miterlimit="10" d="M718.215,83.368
		c0,0-181.82-60.326-324.63,29.413c-107.651,67.622-84.193-27.064-126.083-61.333C220.123,12.69,217.75,5.593,142.073,78.518
		C66.395,151.443,69.542,46.299,0.785,6.981"/>
	<path fill="none" stroke="#F5801F" stroke-width="0.198" stroke-miterlimit="10" d="M720.054,82.21
		c0,0-183.248-58.169-326.087,31.523c-107.71,67.611-83.755-28.409-125.73-62.817c-47.268-38.746-50.351-44.684-126.028,28.242
		C66.531,152.083,69.733,46.054,0.744,6.627"/>
	<path fill="none" stroke="#F5811F" stroke-width="0.198" stroke-miterlimit="10" d="M721.893,81.052
		c0,0-184.677-56.011-327.544,33.636c-107.769,67.6-83.317-29.756-125.376-64.302c-47.157-38.734-50.951-43.512-126.627,29.413
		C66.667,152.724,69.923,45.808,0.703,6.273"/>
	<path fill="none" stroke="#F6821F" stroke-width="0.198" stroke-miterlimit="10" d="M723.732,79.894
		c0,0-186.105-53.853-329.003,35.747C286.903,183.23,311.85,84.54,269.708,49.854c-47.047-38.723-51.55-42.341-127.227,30.584
		C66.804,153.364,70.114,45.563,0.662,5.919"/>
	<path fill="none" stroke="#F6831F" stroke-width="0.198" stroke-miterlimit="10" d="M725.571,78.736
		c0,0-187.533-51.695-330.46,37.859c-107.885,67.577-82.442-32.447-124.667-67.272c-46.936-38.71-52.149-41.169-127.826,31.756
		C66.94,154.004,70.305,45.318,0.621,5.565"/>
	<path fill="none" stroke="#F6851F" stroke-width="0.198" stroke-miterlimit="10" d="M727.41,77.579
		c0,0-188.961-49.538-331.918,39.97C287.55,185.116,313.488,83.756,271.18,48.792c-46.826-38.698-52.749-39.998-128.426,32.927
		C67.076,154.645,70.496,45.073,0.58,5.21"/>
	<path fill="none" stroke="#F6861F" stroke-width="0.198" stroke-miterlimit="10" d="M729.25,76.42c0,0-190.39-47.38-333.376,42.082
		c-108.001,67.556-81.567-35.137-123.958-70.242C225.2,9.575,218.567,9.435,142.89,82.36C67.212,155.285,70.687,44.828,0.539,4.856"
		/>
	<path fill="none" stroke="#F6871F" stroke-width="0.198" stroke-miterlimit="10" d="M731.089,75.262
		c0,0-191.817-45.222-334.833,44.193C288.196,187,315.125,82.974,272.651,47.729C226.045,9.056,218.703,10.075,143.026,83
		C67.349,155.925,70.877,44.582,0.499,4.502"/>
	<path fill="none" stroke="#F6881F" stroke-width="0.198" stroke-miterlimit="10" d="M732.928,74.104
		c0,0-193.245-43.064-336.291,46.306c-108.117,67.533-80.693-37.826-123.25-73.212C226.891,8.537,218.839,10.715,143.163,83.64
		C67.485,156.565,71.068,44.337,0.458,4.148"/>
	<path fill="none" stroke="#F6891F" stroke-width="0.198" stroke-miterlimit="10" d="M734.767,72.946
		c0,0-194.673-40.906-337.748,48.417c-108.176,67.522-80.323-39.09-122.896-74.696c-46.458-38.561-55.146-35.311-130.823,37.614
		C67.621,157.206,71.258,44.092,0.417,3.794"/>
	<path fill="none" stroke="#F68A1E" stroke-width="0.198" stroke-miterlimit="10" d="M736.606,71.789
		c0,0-196.102-38.75-339.207,50.528c-108.233,67.511-79.88-40.442-122.542-76.182c-46.341-38.557-55.746-34.14-131.423,38.786
		C67.757,157.846,71.449,43.847,0.376,3.439"/>
	<path fill="none" stroke="#F68C1E" stroke-width="0.198" stroke-miterlimit="10" d="M738.445,70.63
		c0,0-197.529-36.591-340.664,52.64c-108.292,67.5-79.437-41.794-122.188-77.666C229.369,7.05,219.248,12.636,143.571,85.561
		C67.894,158.486,71.64,43.602,0.335,3.085"/>
	<path fill="none" stroke="#F68D1E" stroke-width="0.198" stroke-miterlimit="10" d="M740.284,69.472
		c0,0-198.957-34.434-342.122,54.752c-108.35,67.488-78.994-43.146-121.833-79.151c-46.107-38.55-56.945-31.796-132.622,41.129
		C68.03,159.126,71.831,43.356,0.294,2.731"/>
	<path fill="none" stroke="#F78E1E" stroke-width="0.198" stroke-miterlimit="10" d="M742.124,68.314
		c0,0-200.386-32.276-343.58,56.863c-108.408,67.478-78.551-44.499-121.479-80.636c-45.991-38.546-57.544-30.625-133.221,42.301
		C68.166,159.767,72.021,43.111,0.253,2.377"/>
	<path fill="none" stroke="#F78F1E" stroke-width="0.198" stroke-miterlimit="10" d="M743.963,67.156
		c0,0-201.813-30.118-345.037,58.975C290.459,193.598,320.818,80.28,277.801,44.01C231.927,5.468,219.657,14.557,143.98,87.482
		C68.302,160.407,72.212,42.866,0.212,2.023"/>
	<path fill="none" stroke="#F7901E" stroke-width="0.198" stroke-miterlimit="10" d="M745.802,65.999
		c0,0-203.241-27.96-346.495,61.086c-108.524,67.456-77.665-47.203-120.771-83.606c-45.757-38.538-58.743-28.281-134.42,44.644
		C68.438,161.047,72.403,42.621,0.171,1.668"/>
	<path fill="none" stroke="#F7921E" stroke-width="0.198" stroke-miterlimit="10" d="M747.641,64.84
		c0,0-204.669-25.803-347.952,63.198c-108.583,67.444-77.222-48.556-120.417-85.091c-45.64-38.534-59.343-27.11-135.02,45.816
		C68.575,161.688,72.594,42.375,0.13,1.314"/>
	<path fill="none" stroke="#F7931E" stroke-width="0.198" stroke-miterlimit="10" d="M749.48,63.683
		c0,0-206.098-23.645-349.411,65.309c-108.641,67.434-76.778-49.907-120.062-86.576c-45.522-38.531-59.942-25.938-135.619,46.987
		C68.711,162.328,72.784,42.13,0.09,0.96"/>
	<path fill="none" stroke="#F7941E" stroke-width="0.198" stroke-miterlimit="10" d="M751.319,62.524
		c0,0-207.525-21.487-350.868,67.421c-108.699,67.422-76.335-51.26-119.708-88.061c-45.406-38.527-60.542-24.767-136.218,48.159
		C68.847,162.968,72.975,41.885,0.049,0.606"/>
</g>
</svg>
